<svg width="152" height="90" viewBox="0 0 152 90" fill="none" xmlns="http://www.w3.org/2000/svg">
<g clip-path="url(#clip0_154_1867)">
<path d="M0 45C0 20.1472 33.7278 0 75.3341 0C116.94 0 150.671 20.1472 150.671 45C150.671 69.8528 116.943 90 75.3341 90C33.7251 90 0 69.8528 0 45Z" fill="#FDD0AF"/>
<path d="M6.02686 42.3876C6.02686 19.5209 37.0561 0.984985 75.3341 0.984985C113.612 0.984985 144.641 19.5209 144.641 42.3849C144.641 65.2489 113.612 83.7848 75.3341 83.7848C37.0561 83.7848 6.02686 65.2516 6.02686 42.3876Z" fill="#80561B"/>
<path d="M52.9498 31.9566C53.0088 32.1922 54.0619 33.0675 54.0619 33.0675C51.8082 35.894 49.8332 37.9497 48.1316 39.2372C46.4567 40.5273 45.2213 41.1697 44.4254 41.1697C43.7662 41.1697 43.4366 40.5808 43.4366 39.4004C43.4366 36.4668 45.3714 31.9406 49.2437 25.8244C52.5103 20.5327 52.9123 19.3897 50.5996 21.7238C47.4964 25.1793 44.2298 28.4181 39.1087 36.3705C35.1239 42.5562 29.9224 53.0835 28.4378 55.6424C31.0211 55.7548 34.4807 56.78 40.3736 59.8635C72.0861 76.1242 86.3989 77.8051 107.167 66.871C97.7665 78.924 72.9062 84.5932 34.06 67.5723C30.5147 66.0198 27.0738 65.3801 23.9572 65.0482C21.3739 64.7725 17.4561 64.8448 14.9317 64.8421C13.8223 64.7725 11.0541 65.2222 10.3814 65.4069C9.14875 65.7066 7.93748 66.2848 6.09915 67.053C4.28762 67.7944 3.00936 68.1638 2.26974 68.1638C1.19783 68.1638 0.664551 67.7248 0.664551 66.8469C0.664551 66.3544 0.844096 65.7923 1.20051 65.1606C2.10627 63.7072 2.98524 62.3233 3.83741 61.0064C4.68959 59.6895 5.59535 58.6617 6.55471 57.9202C7.51408 57.1788 8.9022 56.6033 10.7137 56.1911C12.5253 55.7789 14.9156 55.5621 17.8795 55.5327C22.3547 48.6777 29.8876 38.0701 33.7599 32.7784C37.6322 27.4599 41.1454 22.9738 44.3048 19.3255C47.4884 15.6772 50.2754 12.9229 52.6657 11.0573C55.0534 9.16489 56.948 8.22003 58.3496 8.22003C59.3384 8.22003 60.1075 8.49573 60.6569 9.04177C61.2062 9.59048 61.4796 10.3587 61.4796 11.3464C61.4796 14.5744 58.6926 21.1938 53.1213 31.1992C52.9284 31.6702 52.9525 31.705 52.9552 31.9566H52.9498Z" fill="#9F7C4D"/>
<path fill-rule="evenodd" clip-rule="evenodd" d="M59.25 53.4234V54.4165C59.25 55.9797 59.6333 57.1975 60.405 58.0728C61.1741 58.9481 62.1817 59.3844 63.4278 59.3844C64.6739 59.3844 66.0674 59.0792 67.4475 58.4716C68.8517 57.864 70.2452 57.0557 71.6253 56.0466C73.0054 55.0401 74.8651 53.6055 76.8562 51.9111L76.5454 54.7832C73.5467 58.386 70.8723 60.7923 68.2461 62.7248C65.6199 64.6306 62.9535 65.5862 60.2496 65.5862C57.8887 65.5862 56.0182 64.6708 54.6408 62.8453C53.2607 61.0171 52.572 58.5145 52.572 55.3346C52.572 52.5535 53.2205 50.0375 54.5202 47.7837C55.8199 45.5059 57.9396 43.1076 60.8847 40.5915C62.8999 38.8704 64.9017 37.5723 66.8928 36.697C68.8812 35.8217 70.6579 35.3854 72.2229 35.3854C73.469 35.3854 74.4498 35.6772 75.168 36.2607C75.9103 36.8175 76.2801 37.666 76.2827 38.8035C76.2827 40.4711 75.6584 42.1413 74.4123 43.8116C73.1662 45.455 71.2555 47.0985 68.6829 48.7393C66.1371 50.356 62.9937 51.9192 59.2527 53.4288L59.25 53.4234ZM59.6467 50.8405C62.0343 49.9143 64.0763 48.7607 65.7726 47.3822C67.4689 46.0064 68.715 44.6949 69.5136 43.4475C70.3363 42.1761 70.7463 41.25 70.7463 40.6665C70.7463 40.0589 70.4676 39.7537 69.9102 39.7537C69.4332 39.7537 68.6507 40.0589 67.5627 40.6665C66.5015 41.2768 65.4135 42.0717 64.3014 43.0514C63.2134 44.0337 62.2326 45.1847 61.3564 46.5096C60.4801 47.8346 59.9093 49.28 59.6467 50.8405Z" fill="#9F7C4D"/>
<path d="M90.6276 31.3571H92.3346C93.7361 28.8464 95.0063 27.0771 96.1452 26.0439C97.2815 24.9866 98.5785 24.4593 100.034 24.4593C101.489 24.4593 102.215 24.7912 102.218 25.4497C102.218 25.7682 101.65 26.6274 100.511 28.0273C99.3717 29.4272 98.5115 30.6049 97.93 31.5551C98.8304 31.6622 99.6236 31.7532 100.312 31.8335C101.028 31.9138 101.583 31.9807 101.979 32.0316C100.47 34.8341 98.5785 37.7008 96.3033 40.6344C95.561 40.5835 94.9393 40.5434 94.4382 40.5166C93.9344 40.4657 93.4199 40.4256 92.8893 40.3988C92.3855 40.348 91.7638 40.2944 91.0242 40.2409C89.5958 42.5402 88.3899 44.6012 87.4118 46.424C86.4605 48.2227 85.7182 49.8742 85.1903 51.3785C84.6865 52.8854 84.4373 54.3121 84.4373 55.6585C84.4373 57.4813 85.1635 58.394 86.6186 58.394C87.6235 58.394 88.9339 57.8667 90.5472 56.8094C92.1872 55.7281 94.3685 54.0766 97.0965 51.8549V54.5102C89.9522 62.2537 84.6731 66.1242 81.2617 66.1242C80.0719 66.1242 79.1045 65.6611 78.3649 64.7377C77.6494 63.8142 77.293 62.6231 77.293 61.1697C77.293 60.1927 77.4913 59.0311 77.8879 57.682C78.3113 56.333 79.0509 54.3014 80.1094 51.5766C79.7396 51.8951 79.3805 52.2109 79.0375 52.5294C78.7213 52.8212 78.4158 53.0969 78.1237 53.3619C77.8584 53.6001 77.569 53.8651 77.2501 54.1542C76.9339 54.4192 76.7516 54.6333 76.4354 54.9224V52.2591C79.2144 49.9331 82.4355 45.8432 86.3801 40.0027C85.9835 39.9759 85.611 39.9652 85.268 39.9625C84.9223 39.9358 84.515 39.9251 84.038 39.9224C82.4757 39.9224 81.3126 40.0294 80.5462 40.2382C80.23 40.3185 79.9245 40.4095 79.6351 40.5166C79.3698 40.5969 79.1849 40.6344 79.0804 40.6344C78.9759 40.6344 78.9223 40.5541 78.9223 40.3962C78.9223 39.5236 79.4636 38.2173 80.5489 36.4722C81.4225 34.992 82.2425 33.8972 83.0089 33.1826C83.8021 32.4679 84.7562 31.9941 85.8656 31.7559C87.0018 31.4909 88.5909 31.3598 90.6276 31.3598V31.3571Z" fill="#9F7C4D"/>
<path d="M115.252 53.4234L108.172 59.4218C104.804 62.3608 102.55 63.8303 101.411 63.8303C100.377 63.8303 99.2887 62.6526 98.1498 60.2944C97.0082 57.9122 96.4401 55.8324 96.4401 54.0578C96.4401 52.5482 96.6652 51.2768 97.1154 50.2436C97.5924 49.1836 98.4017 47.8212 99.5406 46.151C101.156 43.8999 102.708 41.9941 104.195 40.4309C105.68 38.8704 106.993 37.6633 108.132 36.8148C109.271 35.9395 110.067 35.5032 110.52 35.5032C111.235 35.5032 111.924 35.8753 112.588 36.6167C113.277 37.3581 113.62 38.1263 113.623 38.9213C113.623 39.4245 113.25 40.2329 112.508 41.3437C111.793 42.4572 110.638 43.8731 109.048 45.5942C107.483 47.2912 105.297 49.3281 102.486 51.7131L101.73 53.8972C101.518 54.3228 101.411 54.6922 101.411 55.0107C101.411 55.7254 101.77 56.084 102.486 56.084C103.201 56.084 104.964 55.1445 107.695 53.2628C110.453 51.3838 113.435 48.8544 116.643 45.6745C117.889 44.4299 118.923 43.3324 119.746 42.3769C120.569 41.424 121.308 40.538 121.973 39.7163C122.635 38.8704 123.179 38.2334 123.602 37.8105C124.053 37.3876 124.449 37.1627 124.795 37.136C125.457 37.0557 125.974 37.334 126.346 37.9711C126.716 38.6055 126.901 39.5476 126.904 40.7923C126.904 41.507 126.585 42.409 125.95 43.493C125.315 44.553 124.12 46.3811 122.37 48.9748C120.62 51.5444 118.87 54.2184 117.12 56.9995C115.397 59.7537 113.631 62.8667 111.83 66.3356C111.91 66.2553 112.717 65.4604 114.255 63.9534C115.818 62.4438 125.325 53.5814 126.998 52.2591C127.603 51.6997 128.453 52.1734 128.088 52.7944C127.761 53.4984 127.105 54.4058 125.543 56.341C122.356 60.1445 120.791 61.9432 117.876 65.3854C114.984 68.8276 112.744 71.5819 111.155 73.6483C109.59 75.7147 108.676 76.9192 108.411 77.2618C107.695 78.1879 107.044 79.0498 106.462 79.8447C105.905 80.6638 105.428 81.2875 105.031 81.7104C104.659 82.1601 104.356 82.3849 104.118 82.3849C103.56 82.3849 103.056 81.8282 102.606 80.7173C102.18 79.6306 101.971 78.6643 101.971 77.8158C101.971 77.0476 102.116 76.3731 102.408 75.7896C104.316 71.4989 108.598 64.0444 115.255 53.4234H115.252Z" fill="#9F7C4D"/>
<path d="M53.7833 31.1269C53.8423 31.3624 54.8954 32.2377 54.8954 32.2377C52.6417 35.0642 50.6667 37.1199 48.965 38.4074C47.2902 39.6975 46.0548 40.3399 45.2589 40.3399C44.5997 40.3399 44.2701 39.7511 44.2701 38.5707C44.2701 35.637 46.2049 31.1108 50.0772 24.9946C53.3438 19.7029 53.7458 18.56 51.4331 20.894C48.3299 24.3496 45.0633 27.5883 39.9422 35.5407C35.9574 41.7264 30.7559 52.2537 29.2713 54.8126C31.8546 54.9251 35.3142 55.9502 41.2071 59.0337C72.9196 75.2944 87.2324 76.9754 108.001 66.0412C98.6 78.0942 73.7397 83.7634 34.8935 66.7425C31.3482 65.19 27.9073 64.5503 24.7907 64.2184C22.2074 63.9427 18.2896 64.015 15.7652 64.0123C14.6558 63.9427 11.8876 64.3924 11.2149 64.5771C9.98224 64.8769 8.77098 65.455 6.93265 66.2232C5.12111 66.962 3.84286 67.334 3.10324 67.334C2.03132 67.334 1.49805 66.8951 1.49805 66.0171C1.49805 65.5246 1.67759 64.9625 2.034 64.3308C2.93977 62.8774 3.81874 61.4936 4.67091 60.1767C5.52308 58.8597 6.42885 57.8319 7.38821 57.0905C8.34757 56.349 9.7357 55.7736 11.5472 55.3614C13.3588 54.9491 15.7491 54.7323 18.713 54.7029C23.1882 47.848 30.7211 37.2404 34.5934 31.9486C38.4657 26.6301 41.9789 22.144 45.1356 18.4957C48.3192 14.8474 51.1062 12.0931 53.4966 10.2275C55.8843 8.33512 57.7789 7.39026 59.1804 7.39026C60.1692 7.39026 60.9383 7.66595 61.4877 8.21199C62.037 8.76071 62.3104 9.52891 62.3104 10.5166C62.3104 13.7446 59.5234 20.364 53.9521 30.3694C53.7592 30.8405 53.7833 30.8753 53.786 31.1269H53.7833Z" fill="#C2AA8A"/>
<path fill-rule="evenodd" clip-rule="evenodd" d="M60.0807 52.5937V53.5867C60.0807 55.1499 60.4639 56.3678 61.2357 57.243C62.0048 58.1183 63.0124 58.5546 64.2585 58.5546C65.5046 58.5546 66.8981 58.2495 68.2782 57.6419C69.6824 57.0343 71.0759 56.2259 72.456 55.2168C73.8361 54.2104 75.6958 52.7757 77.6869 51.0814L77.3761 53.9534C74.3774 57.5562 71.7029 59.9598 69.0768 61.8951C66.4506 63.8008 63.7842 64.7564 61.0803 64.7564C58.7194 64.7564 56.8489 63.8437 55.4715 62.0155C54.0914 60.1874 53.4027 57.6847 53.4027 54.5048C53.4027 51.7238 54.0512 49.2077 55.3509 46.9539C56.6506 44.6761 58.7703 42.2778 61.7154 39.7618C63.7306 38.0407 65.7324 36.7425 67.7235 35.8672C69.7119 34.992 71.4886 34.5557 73.0536 34.5557C74.2997 34.5557 75.2805 34.8474 75.9986 35.4309C76.7409 35.9877 77.1108 36.8362 77.1134 37.9738C77.1134 39.6413 76.489 41.3116 75.2429 42.9818C73.9968 44.6253 72.0862 46.2687 69.5136 47.9095C66.9678 49.5262 63.8244 51.0894 60.0834 52.599L60.0807 52.5937ZM60.4773 50.0107C62.865 49.0846 64.907 47.9309 66.6033 46.5525C68.2996 45.1766 69.5457 43.8651 70.3443 42.6178C71.167 41.3463 71.577 40.4202 71.577 39.8367C71.577 39.2291 71.2983 38.924 70.7409 38.924C70.2639 38.924 69.4814 39.2291 68.3934 39.8367C67.3322 40.447 66.2442 41.242 65.1321 42.2216C64.0441 43.2013 63.0633 44.3549 62.187 45.6799C61.3108 47.0048 60.74 48.4502 60.4773 50.0107Z" fill="#C2AA8A"/>
<path d="M91.4584 30.5273H93.1654C94.5669 28.0166 95.8371 26.2473 96.976 25.2141C98.1123 24.1568 99.4093 23.6295 100.864 23.6295C102.32 23.6295 103.046 23.9615 103.048 24.6199C103.048 24.9384 102.48 25.7976 101.341 27.1975C100.202 28.5974 99.3423 29.7752 98.7608 30.7254C99.6612 30.8324 100.454 30.9234 101.143 31.0037C101.859 31.084 102.413 31.151 102.81 31.2018C101.301 34.0043 99.4093 36.871 97.1341 39.8046C96.3918 39.7537 95.7701 39.7136 95.269 39.6868C94.7652 39.636 94.2507 39.5958 93.7201 39.5691C93.2163 39.5182 92.5946 39.4647 91.855 39.4111C90.4266 41.7104 89.2234 43.7714 88.2426 45.5942C87.2913 47.3929 86.549 49.0444 86.0211 50.5487C85.5173 52.0557 85.2681 53.4823 85.2681 54.8287C85.2681 56.6515 85.9943 57.5642 87.4494 57.5642C88.4543 57.5642 89.7647 57.0369 91.378 55.9797C93.018 54.8983 95.1993 53.2468 97.9247 51.0252V53.6804C90.7804 61.424 85.5039 65.2944 82.0898 65.2944C80.9 65.2944 79.9326 64.8314 79.193 63.9079C78.4775 62.9845 78.1211 61.796 78.1211 60.3399C78.1211 59.3629 78.3194 58.2013 78.716 56.8522C79.1394 55.5032 79.879 53.4716 80.9375 50.7468C80.5677 51.0653 80.2086 51.3812 79.8656 51.6997C79.5494 51.9914 79.2439 52.2671 78.9518 52.5321C78.6865 52.7703 78.3971 53.0353 78.0782 53.3244C77.762 53.5894 77.5798 53.8035 77.2635 54.0926V51.4293C80.0425 49.1033 83.2636 45.0134 87.2082 39.1729C86.8116 39.1461 86.4391 39.1354 86.0961 39.1328C85.7504 39.106 85.3404 39.0953 84.8661 39.0926C83.3038 39.0926 82.1408 39.1997 81.3743 39.4085C81.0581 39.4888 80.7526 39.5798 80.4605 39.6868C80.1952 39.7671 80.0103 39.8046 79.9058 39.8046C79.8013 39.8046 79.7477 39.7243 79.7477 39.5664C79.7477 38.6938 80.289 37.3876 81.3743 35.6424C82.2479 34.1622 83.068 33.0674 83.8344 32.3528C84.6276 31.6381 85.5816 31.1643 86.691 30.9261C87.8273 30.6611 89.4164 30.53 91.453 30.53L91.4584 30.5273Z" fill="#C2AA8A"/>
<path d="M116.083 52.5937L109.003 58.5921C105.634 61.5311 103.381 63.0005 102.242 63.0005C101.207 63.0005 100.119 61.8228 98.9804 59.4647C97.8389 57.0825 97.2708 55.0027 97.2708 53.2281C97.2708 51.7184 97.4959 50.447 97.9461 49.4138C98.4231 48.3539 99.2323 46.9915 100.371 45.3212C101.987 43.0701 103.539 41.1644 105.023 39.6012C106.508 38.0407 107.821 36.8335 108.96 35.985C110.099 35.1098 110.895 34.6735 111.348 34.6735C112.063 34.6735 112.752 35.0455 113.416 35.787C114.105 36.5284 114.448 37.2966 114.451 38.0916C114.451 38.5948 114.078 39.4031 113.336 40.5139C112.621 41.6274 111.466 43.0434 109.876 44.7645C108.311 46.4615 106.125 48.4984 103.314 50.8806L102.558 53.0648C102.346 53.4904 102.239 53.8598 102.239 54.1783C102.239 54.893 102.598 55.2516 103.314 55.2516C104.029 55.2516 105.792 54.3121 108.523 52.4304C111.281 50.5514 114.263 48.022 117.471 44.8421C118.717 43.5974 119.751 42.5 120.574 41.5445C121.397 40.5916 122.136 39.7056 122.801 38.8839C123.463 38.038 124.007 37.401 124.43 36.9781C124.881 36.5552 125.277 36.3303 125.623 36.3036C126.285 36.2233 126.802 36.5016 127.174 37.1387C127.544 37.773 127.729 38.7152 127.732 39.9599C127.732 40.6745 127.413 41.5766 126.778 42.6606C126.143 43.7206 124.948 45.5487 123.198 48.1424C121.448 50.712 119.698 53.386 117.948 56.167C116.225 58.9213 114.459 62.0343 112.658 65.5032C112.738 65.4229 113.545 64.628 115.083 63.121C116.646 61.6114 126.153 52.7489 127.826 51.4267C128.431 50.8673 129.281 51.341 128.916 51.962C128.589 52.6633 127.936 53.5734 126.371 55.5086C123.184 59.3121 121.619 61.1108 118.704 64.553C115.812 67.9952 113.572 70.7495 111.983 72.8159C110.418 74.8822 109.504 76.0867 109.239 76.4294C108.523 77.3555 107.872 78.2174 107.29 79.0123C106.733 79.8314 106.256 80.455 105.859 80.878C105.487 81.3276 105.184 81.5525 104.946 81.5525C104.388 81.5525 103.884 80.9957 103.434 79.8849C103.008 78.7982 102.799 77.8319 102.799 76.9834C102.799 76.2152 102.944 75.5407 103.236 74.9572C105.144 70.6665 109.426 63.212 116.083 52.591V52.5937Z" fill="#C2AA8A"/>
<path d="M54.614 30.2971C54.6729 30.5326 55.7261 31.4079 55.7261 31.4079C53.4751 34.2345 51.4974 36.2901 49.7957 37.5776C48.1209 38.8678 46.8855 39.5102 46.0896 39.5102C45.4304 39.5102 45.1008 38.9213 45.1008 37.7409C45.1008 34.8073 47.0356 30.281 50.9078 24.1649C54.1745 18.8731 54.5765 17.7302 52.2638 20.0642C49.1606 23.5198 45.894 26.7586 40.7729 34.7109C36.7881 40.8967 31.5866 51.424 30.102 53.9829C32.6853 54.0953 36.1449 55.1204 42.0378 58.204C73.7503 74.462 88.063 76.1456 108.831 65.2115C99.4307 77.2645 74.5703 82.9336 35.7242 65.9127C32.1788 64.3603 28.738 63.7206 25.6214 63.3886C23.0381 63.113 19.1203 63.1825 16.5959 63.1825C15.4865 63.1129 12.7183 63.5626 12.0456 63.7473C10.8129 64.0471 9.60167 64.6253 7.76334 65.3935C5.9518 66.1349 4.67355 66.5043 3.93393 66.5043C2.86201 66.5043 2.32874 66.0653 2.32874 65.1874C2.32874 64.6949 2.50828 64.1328 2.86469 63.5011C3.77046 62.0476 4.64943 60.6638 5.5016 59.3469C6.35377 58.03 7.25954 57.0021 8.2189 56.2607C9.17826 55.5193 10.5664 54.9438 12.3779 54.5316C14.1895 54.1194 16.5798 53.9026 19.5437 53.8731C24.0189 47.0182 31.5518 36.4106 35.4241 31.1188C39.2963 25.8003 42.8095 21.3142 45.9663 17.6659C49.1499 14.0177 51.9369 11.2634 54.3273 9.39775C56.7149 7.50535 58.6095 6.56049 60.0111 6.56049C60.9999 6.56049 61.769 6.83618 62.3184 7.38222C62.8677 7.93094 63.1411 8.69914 63.1411 9.68682C63.1411 12.9149 60.3541 19.5343 54.7828 29.5396C54.5899 30.0107 54.614 30.0455 54.6167 30.2971H54.614Z" fill="white"/>
<path fill-rule="evenodd" clip-rule="evenodd" d="M60.9114 51.7612V52.7543C60.9114 54.3175 61.2946 55.5353 62.0664 56.4106C62.8355 57.2859 63.8431 57.7222 65.0892 57.7222C66.3353 57.7222 67.7261 57.417 69.1089 56.8094C70.5131 56.2018 71.9066 55.3935 73.2867 54.3844C74.6667 53.3779 76.5265 51.9433 78.5176 50.2489L78.2067 53.121C75.2081 56.7238 72.5336 59.1274 69.9074 61.0626C67.2813 62.9684 64.6149 63.924 61.911 63.924C59.5501 63.924 57.6796 63.0112 56.3022 61.1831C54.9221 59.3549 54.2334 56.8523 54.2334 53.6724C54.2334 50.8913 54.8819 48.3753 56.1816 46.1215C57.4813 43.8437 59.601 41.4454 62.5461 38.9293C64.5613 37.2082 66.5631 35.9101 68.5542 35.0348C70.5426 34.1595 72.3193 33.7232 73.8842 33.7232C75.1303 33.7232 76.1112 34.015 76.8293 34.5985C77.5716 35.1552 77.9414 36.0037 77.9441 37.1413C77.9441 38.8089 77.3197 40.4791 76.0736 42.1494C74.8275 43.7928 72.9168 45.4363 70.3443 47.0771C67.7985 48.6938 64.6551 50.257 60.9141 51.7666L60.9114 51.7612ZM61.308 49.1783C63.6957 48.2521 65.7377 47.0985 67.434 45.72C69.1303 44.3442 70.3764 43.0327 71.175 41.7853C71.9977 40.5139 72.4077 39.5878 72.4077 39.0043C72.4077 38.3967 72.129 38.0915 71.5716 38.0915C71.0946 38.0915 70.3121 38.3967 69.2241 39.0043C68.1629 39.6146 67.0749 40.4095 65.9628 41.3892C64.8748 42.3715 63.894 43.5225 63.0177 44.8474C62.1414 46.1724 61.5706 47.6178 61.308 49.1783Z" fill="white"/>
<path d="M92.2891 29.6975H93.9961C95.3976 27.1868 96.6678 25.4175 97.8067 24.3844C98.943 23.3271 100.24 22.7998 101.695 22.7998C103.15 22.7998 103.876 23.1317 103.879 23.7901C103.879 24.106 103.311 24.9679 102.172 26.3678C101.033 27.7677 100.173 28.9454 99.5915 29.8956C100.492 30.0027 101.285 30.0937 101.974 30.174C102.689 30.2543 103.244 30.3212 103.641 30.372C102.132 33.1745 100.24 36.0412 97.9648 38.9748C97.2225 38.924 96.6008 38.8838 96.0997 38.8571C95.5959 38.8062 95.0814 38.766 94.5508 38.7393C94.047 38.6884 93.4253 38.6349 92.6857 38.5814C91.2573 40.8806 90.0541 42.9416 89.0733 44.7644C88.122 46.5605 87.3797 48.212 86.8518 49.7189C86.348 51.2259 86.0988 52.6526 86.0988 53.9989C86.0988 55.8217 86.825 56.7345 88.2801 56.7345C89.285 56.7345 90.5954 56.2072 92.2087 55.1499C93.8487 54.0685 96.03 52.417 98.7554 50.1954V52.8506C91.6111 60.5942 86.3346 64.4647 82.9205 64.4647C81.7307 64.4647 80.7633 64.0016 80.0237 63.0781C79.3082 62.1547 78.9518 60.9663 78.9518 59.5102C78.9518 58.5332 79.1501 57.3715 79.5467 56.0225C79.9701 54.6734 80.7097 52.6419 81.7682 49.917C81.3984 50.2355 81.0393 50.5514 80.6963 50.8699C80.3801 51.1617 80.0746 51.4374 79.7825 51.7023C79.5172 51.9406 79.2278 52.2056 78.9089 52.4946C78.5927 52.7596 78.4105 52.9738 78.0942 53.2628V50.5996C80.8732 48.2735 84.0943 44.1836 88.0389 38.3431C87.6423 38.3164 87.2698 38.3057 86.9268 38.303C86.5811 38.2762 86.1711 38.2655 85.6968 38.2628C84.1345 38.2628 82.9714 38.3699 82.205 38.5787C81.8888 38.659 81.5833 38.75 81.2912 38.8571C81.0259 38.9374 80.841 38.9748 80.7365 38.9748C80.632 38.9748 80.5784 38.8945 80.5784 38.7366C80.5784 37.864 81.1197 36.5578 82.205 34.8126C83.0786 33.3324 83.8986 32.2377 84.6651 31.523C85.4583 30.8083 86.4123 30.3346 87.5217 30.0963C88.6579 29.8314 90.2471 29.7002 92.2837 29.7002L92.2891 29.6975Z" fill="white"/>
<path d="M116.914 51.7639L109.834 57.7623C106.465 60.7013 104.211 62.1708 103.073 62.1708C102.038 62.1708 100.95 60.993 99.8113 58.6349C98.6697 56.2527 98.1016 54.1729 98.1016 52.3983C98.1016 50.8887 98.3267 49.6172 98.7769 48.5841C99.2539 47.5241 100.063 46.1617 101.202 44.4914C102.818 42.2404 104.37 40.3346 105.854 38.7714C107.339 37.2109 108.652 36.0038 109.791 35.1553C110.93 34.28 111.726 33.8437 112.178 33.8437C112.894 33.8437 113.583 34.2157 114.247 34.9572C114.936 35.6986 115.279 36.4668 115.282 37.2618C115.282 37.765 114.909 38.5733 114.167 39.6842C113.451 40.7976 112.296 42.2136 110.707 43.9347C109.142 45.6317 106.956 47.6686 104.144 50.0509L103.389 52.235C103.177 52.6606 103.07 53.03 103.07 53.3485C103.07 54.0632 103.429 54.4218 104.144 54.4218C104.86 54.4218 106.623 53.4823 109.354 51.6006C112.111 49.7216 115.094 47.1922 118.302 44.0123C119.548 42.7677 120.582 41.6702 121.405 40.7147C122.228 39.7618 122.967 38.8758 123.632 38.0541C124.294 37.2082 124.838 36.5712 125.261 36.1483C125.711 35.7254 126.108 35.5005 126.454 35.4738C127.116 35.3935 127.633 35.6718 128.005 36.3089C128.375 36.9433 128.56 37.8854 128.563 39.1301C128.563 39.8448 128.244 40.7468 127.609 41.8308C126.974 42.8908 125.778 44.719 124.028 47.3126C122.279 49.8822 120.529 52.5562 118.779 55.3373C117.056 58.0915 115.29 61.2045 113.489 64.6735C113.569 64.5932 114.376 63.7982 115.914 62.2912C117.476 60.7816 126.984 51.9192 128.656 50.5969C129.262 50.0375 130.112 50.5112 129.747 51.1322C129.42 51.8335 128.764 52.7436 127.201 54.6788C124.015 58.4823 122.45 60.2811 119.534 63.7232C116.643 67.1654 114.403 69.9197 112.814 71.9861C111.249 74.0525 110.335 75.257 110.069 75.5996C109.354 76.5257 108.703 77.3876 108.121 78.1826C107.564 79.0016 107.087 79.6253 106.69 80.0482C106.318 80.4979 106.015 80.7227 105.776 80.7227C105.219 80.7227 104.715 80.166 104.265 79.0551C103.839 77.9684 103.627 77.0021 103.627 76.1536C103.627 75.3854 103.772 74.7109 104.064 74.1274C105.972 69.8367 110.254 62.3822 116.911 51.7612L116.914 51.7639Z" fill="white"/>
<path d="M146.619 12.947C146.584 13.576 146.351 14.2291 146.129 14.8019L145.933 15.2463C145.874 15.3801 145.81 15.5166 145.732 15.6558C145.853 15.7629 145.962 15.9208 146.062 16.1429C146.196 16.44 146.592 16.4722 146.879 16.4855C146.994 16.4855 147.104 16.4802 147.211 16.4695C147.032 16.2179 146.949 15.8967 146.949 15.5648C146.949 15.4069 146.978 15.2596 147.026 15.1285C147.037 15.0294 147.066 14.9036 147.125 14.7698L147.53 13.5546L147.878 12.5642H146.916C146.825 12.7355 146.726 12.8587 146.619 12.9417V12.947ZM70.2183 10.9074C70.0843 11.0733 69.9745 11.25 69.8967 11.44C69.819 11.598 69.7788 11.7666 69.7788 11.9406C69.7788 12.0985 69.9021 12.2645 69.9932 12.3662C70.0388 12.3876 70.1326 12.4117 70.2773 12.4197C70.1647 12.1922 70.1031 11.9379 70.1031 11.6515C70.1031 11.5123 70.1192 11.3571 70.154 11.1911L70.2183 10.9074ZM76.213 12.6338C76.2237 12.0396 76.5158 11.3116 76.6552 10.886C76.7945 10.4684 76.9365 10.0562 77.0893 9.63865C77.2286 9.24251 77.4189 8.87313 77.6574 8.55193H77.4671C76.966 8.55193 76.288 8.60011 75.5431 8.70718C75.5163 8.94808 75.4117 9.20771 75.2188 9.4727C74.4872 10.4631 74.037 12.2698 73.7128 13.204C73.4153 14.0525 73.1205 14.9063 72.8284 15.7709C72.7641 15.969 72.6891 16.151 72.598 16.3223C72.7078 16.3303 72.815 16.333 72.9169 16.333L73.209 16.325C73.6243 16.2955 74.8624 16.0921 75.0232 15.5969L75.4814 14.3041L75.6985 13.667C75.8727 13.1799 76.0174 12.848 76.213 12.6338ZM82.063 9.74304C82.0228 9.90364 81.9638 10.0803 81.8834 10.2757C81.6101 10.9342 81.2858 11.4882 80.8973 11.9406C81.1143 11.8656 81.3233 11.78 81.5297 11.6809C82.0094 11.4534 82.3175 11.1055 82.4917 10.5969C82.5534 10.4202 82.5989 10.2355 82.5989 10.0482C82.5989 9.70289 82.4113 9.50215 82.13 9.33084C82.1192 9.4727 82.0951 9.60921 82.0603 9.74304H82.063ZM83.8289 16.2714C83.8182 16.1777 83.8129 16.0814 83.8129 15.985L83.8236 15.7227C83.8316 15.5969 83.8531 15.4524 83.8879 15.3266C83.904 15.2168 83.9281 15.1097 83.9549 15.0054L84.0112 14.81C84.046 14.6574 84.0835 14.5262 84.1264 14.4058L84.188 14.2318C84.3461 13.7955 84.59 13.3887 84.8499 13.0086C84.9437 12.864 85.0482 12.7168 85.1581 12.5723C84.7829 12.6874 84.4265 12.8694 84.121 13.1023C83.5636 13.5278 83.0813 14.2238 83.0813 14.9491C83.0813 15.3132 83.2099 15.6451 83.4431 15.9235C83.561 16.0707 83.6923 16.1831 83.8343 16.2687L83.8289 16.2714ZM88.8348 12.947C88.7999 13.576 88.5668 14.2291 88.3444 14.8019L88.1488 15.2463C88.0898 15.3801 88.0255 15.5166 87.9478 15.6558C88.0684 15.7629 88.1782 15.9208 88.2774 16.1429C88.4114 16.44 88.808 16.4722 89.0947 16.4855C89.2099 16.4855 89.3198 16.4802 89.427 16.4695C89.2475 16.2179 89.1644 15.8967 89.1644 15.5648C89.1644 15.4069 89.1939 15.2596 89.2421 15.1312C89.2528 15.0321 89.2823 14.9063 89.3386 14.7752L89.7432 13.56L90.0916 12.5696H89.1296C89.0384 12.7409 88.9393 12.864 88.8321 12.947H88.8348ZM96.6437 12.4786C96.6839 12.6258 96.708 12.7918 96.708 12.9764V14.007C96.708 14.3549 96.7026 14.7029 96.6919 15.0535C96.6919 15.4363 96.6276 15.7896 96.507 16.1028C96.7267 16.0038 96.9411 15.8779 97.1501 15.7254C97.469 15.4898 97.6539 15.1713 97.6164 14.5476L97.4878 12.7356L97.4583 12.2698L96.6437 12.4759V12.4786ZM101.494 16.4775C101.312 16.242 101.207 15.9395 101.207 15.5996C101.207 15.4363 101.234 15.2677 101.266 15.1365L101.331 14.8929C101.548 14.3067 101.692 13.8276 101.864 13.3565L102.113 12.6124C102.231 12.2698 102.277 11.8603 102.571 11.6167C102.545 11.2393 102.719 10.7575 102.885 10.3292L102.033 10.4524L101.904 10.8217C101.842 10.9743 101.778 11.1456 101.727 11.2928C101.625 11.5899 101.502 11.9004 101.304 12.1387C101.293 12.4679 101.191 12.8292 101.076 13.1451L100.907 13.6563C100.846 13.8651 100.779 14.0766 100.709 14.2746L100.527 14.7778L100.414 15.1793C100.385 15.2998 100.358 15.4309 100.342 15.5514L100.32 15.7334C100.331 16.349 100.653 16.4722 101.242 16.4909L101.494 16.4829V16.4775ZM105.699 15.8779C105.851 15.9877 106.018 16.0841 106.186 16.1617C106.06 15.8512 106.007 15.5327 106.031 15.2463C105.924 15.4604 105.814 15.6718 105.699 15.8779ZM106.181 14.1087C106.194 13.9882 106.219 13.8624 106.248 13.7232C106.294 13.5385 106.358 13.3432 106.433 13.1585C106.487 13.022 106.548 12.8881 106.615 12.757C106.194 12.9122 105.803 13.129 105.511 13.4261C105.916 13.6162 106.095 13.8464 106.178 14.1087H106.181ZM114.132 14.4218C114.721 12.6847 115.322 10.9502 115.922 9.21574H114.947L114.105 11.6836L113.478 13.5064C113.832 13.7313 114.119 14.0203 114.129 14.4218H114.132ZM114.078 16.4829C113.907 16.2687 113.805 15.993 113.805 15.6692C113.805 15.5246 113.824 15.3828 113.859 15.2436C113.647 15.6397 113.422 16.0145 113.175 16.3678C113.301 16.4213 113.454 16.4481 113.631 16.4722L113.915 16.4855L114.078 16.4802V16.4829ZM118.347 15.8887C118.495 15.9957 118.658 16.0867 118.822 16.1617C118.701 15.8619 118.647 15.5567 118.663 15.2757C118.578 15.4791 118.468 15.6879 118.347 15.8887ZM118.819 14.0766C118.832 13.9668 118.854 13.849 118.883 13.7232C118.929 13.5385 118.993 13.3432 119.068 13.1585C119.122 13.022 119.183 12.8881 119.25 12.757C118.83 12.9122 118.436 13.129 118.144 13.4288C118.564 13.6296 118.738 13.8357 118.816 14.0792L118.819 14.0766ZM133.032 12.2805C133.11 12.409 133.174 12.5482 133.223 12.6954C133.247 12.7891 133.276 12.8774 133.287 12.8935L133.421 12.8158C133.426 12.7998 133.442 12.7516 133.442 12.6552L133.434 12.5C133.426 12.4599 133.41 12.417 133.381 12.3662C133.274 12.31 133.153 12.2805 133.032 12.2805ZM128.23 12.2591C128.52 12.5161 128.702 12.8988 128.702 13.386C128.702 13.6108 128.643 13.7955 128.587 13.9293L127.726 16.333H128.479L128.536 16.1563C128.892 15.0857 129.259 14.0016 129.9 13.0648C129.809 12.9872 129.723 12.8828 129.64 12.7516C129.423 12.401 128.97 12.2778 128.581 12.2564L128.421 12.2457L128.284 12.2564H128.233L128.23 12.2591ZM136.513 16.4829C136.374 16.3062 136.275 16.0894 136.232 15.8378L136.216 15.6531C136.216 15.4845 136.246 15.3078 136.286 15.1633C136.286 15.1633 136.35 14.9518 136.358 14.9572L136.396 14.8153L136.712 13.8812L137.047 12.9283L137.175 12.5696H136.2L135.396 14.8983C135.313 15.1633 135.243 15.4417 135.243 15.72C135.243 15.9101 135.342 16.1269 135.423 16.2741C135.463 16.3035 135.549 16.3517 135.677 16.3945C135.876 16.4668 136.09 16.4855 136.299 16.4855H136.436L136.511 16.4802L136.513 16.4829ZM141.147 13.9668C141.359 14.2934 141.377 14.6949 141.091 15.2115L141.016 15.3399L140.954 15.4684C141.016 15.6344 141.107 15.7896 141.222 15.9315C141.34 16.0787 141.471 16.1911 141.613 16.2768C141.602 16.1831 141.597 16.0867 141.597 15.9904L141.608 15.7281C141.616 15.6023 141.637 15.4577 141.672 15.3319C141.688 15.2222 141.712 15.1151 141.739 15.0107L141.795 14.8153C141.83 14.6627 141.868 14.5316 141.911 14.4111L141.972 14.2372C142.13 13.8009 142.374 13.394 142.634 13.0139C142.731 12.8694 142.832 12.7222 142.942 12.5776C142.567 12.6927 142.211 12.8747 141.905 13.1076C141.613 13.3298 141.34 13.6296 141.149 13.9668H141.147ZM140.769 9.50215L140.782 9.67345V9.80996C140.745 10.5005 140.378 11.0921 139.842 11.4989C139.818 11.7024 139.769 11.9111 139.71 12.1146C139.957 11.8201 140.238 11.5525 140.541 11.3223C141.401 10.6692 142.473 10.2677 143.553 10.1981C143.65 10.182 143.746 10.174 143.84 10.174H143.985C144.462 10.174 144.928 10.2463 145.381 10.3881L145.657 10.4872C145.823 10.3908 145.995 10.3266 146.131 10.3266H149.454C151.242 10.3266 150.392 12.1815 150.089 13.0621L149.979 13.3753C150.858 13.2361 151.357 13.4556 151.357 13.4556C153.083 14.2184 150.864 16.8308 150.196 17.508C149.342 18.3806 148.176 18.7393 146.879 18.7393C146.177 18.7179 145.421 18.5493 144.848 18.1263C144.266 18.4502 143.618 18.6644 142.95 18.7286C142.846 18.7473 142.741 18.7554 142.639 18.7554H142.463C141.337 18.7232 140.316 18.3191 139.574 17.4706L139.386 17.6445C138.58 18.3271 137.545 18.6751 136.5 18.7366H136.296C135.833 18.7366 135.369 18.6751 134.93 18.5198C133.662 18.0889 132.99 17.0316 132.99 15.7254C132.99 15.5246 133.006 15.3239 133.035 15.1258C132.523 15.0589 132.028 14.826 131.668 14.4593C131.199 15.1927 130.94 16.0439 130.666 16.863C130.605 17.0584 130.538 17.2511 130.465 17.4465L130.412 17.6124C130.264 18.0514 129.795 18.5841 129.278 18.5841H126.124C125.207 18.5841 124.956 18.0541 125.031 17.2859C124.637 17.6499 124.176 17.9497 123.664 18.1906C122.747 18.6055 121.74 18.7875 120.735 18.7875H120.531C120.421 18.7875 120.32 18.7794 120.226 18.7661C119.612 18.7339 119.006 18.6108 118.422 18.4235C117.892 18.2414 117.391 17.9818 116.956 17.6553C116.142 18.4181 115.043 18.7339 113.856 18.7339L113.65 18.7259L113.43 18.7152C112.653 18.6215 111.991 18.3619 111.5 17.9443C111.35 18.0327 111.192 18.1156 111.031 18.1906C110.115 18.6055 109.107 18.7875 108.105 18.7875H107.901C107.792 18.7875 107.69 18.7794 107.596 18.7661C106.982 18.7339 106.377 18.6108 105.792 18.4235C105.265 18.2414 104.763 17.9845 104.329 17.6579C103.466 18.402 102.37 18.7339 101.239 18.7339C100.052 18.6911 99.1091 18.2602 98.5704 17.4706C97.8067 18.1183 96.7803 18.5038 95.7004 18.6108L95.3627 18.6376L95.0197 18.6483L94.6177 18.6403C94.457 18.6322 94.2855 18.6162 94.1247 18.5867C93.3797 18.5038 92.6669 18.2521 92.0773 17.8025C91.2627 18.4582 90.2256 18.7339 89.0894 18.7339C88.3873 18.7125 87.6316 18.5439 87.0581 18.121C86.4766 18.4449 85.8281 18.659 85.1608 18.7232C85.0563 18.742 84.9518 18.75 84.8499 18.75H84.6731C83.4993 18.7152 82.4355 18.2789 81.6878 17.3501C81.1304 16.6756 80.8195 15.8298 80.8195 14.9545C80.8195 14.7323 80.8383 14.5129 80.8758 14.2987C80.4872 14.3924 80.0906 14.4593 79.6967 14.5048C79.2144 14.553 78.7293 14.5798 78.2443 14.5798C78.0808 14.5798 77.92 14.5744 77.7592 14.5664L77.6011 15.0321L77.1375 16.3357C76.6284 17.848 74.8999 18.4422 73.4609 18.5573C73.351 18.5733 73.2384 18.5814 73.1205 18.5814H72.9088C72.0995 18.5814 71.2527 18.4395 70.5345 18.046L70.4086 17.9738L70.2424 17.8854C70.2907 17.9015 70.3309 17.9202 70.3711 17.9443L69.0017 17.1467C69.2992 16.8496 70.5506 15.4925 70.6819 15.0803L70.8454 14.5985C70.6122 14.6494 70.3818 14.6735 70.162 14.6627C68.6292 14.5958 67.5225 13.4743 67.5225 11.9406C67.5225 11.432 67.635 10.9235 67.8628 10.4684C69.2348 7.38491 74.4631 6.30621 77.4591 6.30621C79.2331 6.30621 81.7575 6.41863 83.3064 7.42506C84.255 8.00054 84.8419 8.93202 84.8419 10.0535C84.8419 10.1499 84.8365 10.2436 84.8285 10.3399C85.134 10.265 85.4448 10.2168 85.7584 10.1981C85.8549 10.182 85.9513 10.174 86.0451 10.174H86.1898C86.6668 10.174 87.1331 10.2463 87.586 10.3881L87.862 10.4872C88.0282 10.3908 88.1997 10.3266 88.3363 10.3266H91.6593C93.302 10.3266 92.7178 11.8951 92.3775 12.8319C92.7017 12.6874 93.0608 12.6124 93.436 12.6258C93.4413 12.2056 94.4221 10.7281 94.9902 10.5835C95.2716 10.5112 98.8598 8.89187 99.5137 10.356C99.5673 10.3373 99.6236 10.3239 99.6799 10.3158L99.7978 10.0107L99.9505 9.57709C100.505 7.94165 101.778 8.22003 103.279 8.00589C105.806 7.6606 106.074 8.03266 105.238 10.4363C105.393 10.5112 105.511 10.6183 105.594 10.7521C106.189 10.5032 106.838 10.3373 107.494 10.2516C107.872 10.2008 108.25 10.174 108.63 10.174C109.182 10.174 109.745 10.2168 110.278 10.3721L110.447 10.4176C110.989 10.5675 111.5 10.8271 111.892 11.1965L111.975 10.9582C112.401 9.71092 112.824 6.9727 114.137 6.9727H117.495C119.304 6.9727 118.495 9.44594 117.849 10.9235C118.543 10.5782 119.325 10.356 120.127 10.2516C120.504 10.2008 120.882 10.174 121.263 10.174C121.815 10.174 122.378 10.2168 122.911 10.3721L123.077 10.4176C123.825 10.6237 124.511 11.0412 124.915 11.6622C125.703 10.7495 126.751 10.1071 128.061 10.0241C128.177 10.0107 128.295 10.0027 128.415 10.0027C128.536 10.0027 128.656 10.0107 128.782 10.0241C129.479 10.0723 130.192 10.2998 130.757 10.7173C131.106 10.5193 131.534 10.3239 131.91 10.2061C132.269 10.0883 132.647 10.0375 133.024 10.0375C133.587 10.0375 134.131 10.1981 134.611 10.4925L134.75 10.5969C134.962 10.4417 135.211 10.3266 135.391 10.3266H136.004C135.953 10.1499 135.983 10.1071 135.983 10.1071L136.42 9.53694C137.039 8.74465 137.813 7.97645 138.885 7.97645C139.836 8.05407 140.616 8.49037 140.761 9.50215H140.769Z" fill="white"/>
<path fill-rule="evenodd" clip-rule="evenodd" d="M83.419 10.9689C83.1457 11.7639 82.6311 12.3394 81.8754 12.6981C81.1197 13.0567 80.3104 13.2842 79.4475 13.3886C79.2198 13.4101 78.9947 13.4288 78.7749 13.4395C78.5525 13.4502 78.3354 13.4556 78.1184 13.4556C77.9013 13.4556 77.6869 13.4475 77.4699 13.4288C77.2528 13.4127 77.0491 13.3967 76.8562 13.386C76.7758 13.6028 76.7008 13.8169 76.6257 14.0337C76.5534 14.2505 76.481 14.4593 76.4114 14.6627C76.331 14.8795 76.2559 15.0937 76.1809 15.3105C76.1059 15.5273 76.0308 15.7414 75.9504 15.9582C75.803 16.4133 75.4627 16.7612 74.9268 17.0048C74.3935 17.2484 73.8173 17.3929 73.2037 17.4384C73.1367 17.4491 73.0643 17.4545 72.992 17.4545H72.7776C72.4265 17.4545 72.0889 17.4197 71.7726 17.3528C71.4538 17.2859 71.1804 17.1868 70.9553 17.0637C70.9339 17.053 70.9124 17.0423 70.8964 17.0289C70.8803 17.0182 70.8588 17.0075 70.8374 16.9941C70.8267 16.9941 70.8186 16.9914 70.8106 16.9861L70.7838 16.9593C70.749 16.9486 70.7195 16.9352 70.69 16.9165C70.6605 16.9004 70.6311 16.8844 70.5962 16.8736C70.6311 16.8389 70.6632 16.8067 70.6981 16.7719C70.7329 16.7371 70.7651 16.705 70.7999 16.6702C70.9821 16.4882 71.1429 16.2982 71.2849 16.1001C71.427 15.902 71.5368 15.6772 71.6172 15.4283C71.912 14.553 72.2121 13.6884 72.5123 12.8319C72.8124 11.9754 73.1125 11.1162 73.4073 10.2516C73.4984 9.98928 73.6083 9.73767 73.7396 9.4941C73.8709 9.25052 74.0156 9.02033 74.1737 8.80352C74.0263 8.84902 73.8709 8.90256 73.7048 8.96412C73.5413 9.02568 73.3778 9.09795 73.2197 9.17558C72.7642 9.39238 72.3408 9.67076 71.9495 10.0107C71.5583 10.3506 71.2983 10.7307 71.1751 11.151C71.1536 11.2527 71.1322 11.3437 71.1161 11.424C71.1 11.5043 71.0893 11.5765 71.0893 11.6461C71.0893 11.7933 71.1268 11.9165 71.1992 12.0128C71.2742 12.1092 71.3734 12.2029 71.4966 12.2939C71.5636 12.3394 71.636 12.3822 71.711 12.4224C71.786 12.4625 71.8664 12.5107 71.9576 12.5669C71.7083 12.8613 71.4404 13.1022 71.1563 13.2896C70.8722 13.477 70.5131 13.5599 70.0817 13.5359C69.5699 13.5144 69.1813 13.3458 68.9133 13.0326C68.6453 12.7195 68.5114 12.3554 68.5114 11.9352C68.5114 11.7773 68.5274 11.614 68.5623 11.4507C68.5971 11.2875 68.6534 11.1242 68.7338 10.9663C68.9508 10.455 69.3394 9.98393 69.9022 9.55298C70.4649 9.12204 71.1322 8.74731 71.9066 8.42879C72.6784 8.11026 73.5359 7.86401 74.4712 7.68735C75.4091 7.51069 76.3604 7.42236 77.3252 7.42236C78.6543 7.42236 79.745 7.50534 80.5972 7.66862C81.4493 7.83189 82.1032 8.06208 82.5588 8.35919C82.9232 8.576 83.1832 8.82761 83.344 9.11669C83.5021 9.40577 83.5825 9.71626 83.5825 10.0455C83.5825 10.1927 83.5691 10.3426 83.5396 10.4978C83.5101 10.6504 83.4699 10.8083 83.4109 10.9663L83.419 10.9689ZM80.707 9.84474C80.7633 9.70823 80.8062 9.58243 80.8357 9.47001C80.8652 9.35759 80.8786 9.24784 80.8786 9.14613C80.8786 8.91862 80.7955 8.74731 80.632 8.62686C80.4659 8.50909 80.214 8.44752 79.8736 8.44752C79.3966 8.44752 79.0054 8.60277 78.6972 8.91594C78.389 9.22911 78.1639 9.59313 78.0165 10.0134C77.8692 10.4229 77.7271 10.8298 77.5905 11.2393C77.4538 11.6488 77.3171 12.0557 77.1805 12.4652C78.0889 12.3742 78.8178 12.1279 79.3618 11.7238C79.9085 11.3196 80.356 10.6932 80.7097 9.84206L80.707 9.84474Z" fill="#F37421"/>
<path fill-rule="evenodd" clip-rule="evenodd" d="M92.9804 14.478C92.5597 15.3747 92.0559 16.1215 91.4717 16.7157C90.8848 17.3126 90.0487 17.6097 88.958 17.6097H88.8723C88.5078 17.599 88.1648 17.516 87.8406 17.3635C87.5163 17.2109 87.2751 16.9566 87.117 16.606C86.8088 16.8897 86.4605 17.1199 86.0692 17.2966C85.678 17.4732 85.276 17.5776 84.866 17.6124C84.8204 17.6231 84.7722 17.6285 84.7213 17.6285H84.5578C84.1612 17.6178 83.7753 17.5375 83.4082 17.3902C83.0384 17.243 82.7115 16.9941 82.4274 16.6408C82.2103 16.3785 82.0549 16.1081 81.9584 15.8244C81.862 15.5407 81.8137 15.2516 81.8137 14.9572C81.8137 14.4352 81.9531 13.9293 82.2318 13.4422C82.5105 12.955 82.8642 12.5455 83.2983 12.2163C83.6279 11.9673 84.0085 11.7585 84.4399 11.5953C84.8714 11.432 85.3162 11.3383 85.7691 11.3142C85.8146 11.3035 85.8629 11.2982 85.9138 11.2982H86.0585C86.423 11.2982 86.774 11.3517 87.117 11.4588C87.4573 11.5658 87.7655 11.7345 88.0389 11.962L88.2104 11.4507H91.536C91.4663 11.6542 91.3966 11.8629 91.3216 12.0717C91.2466 12.2805 91.1769 12.4893 91.1072 12.6927C90.9598 13.1022 90.8151 13.5118 90.6731 13.9266C90.5311 14.3415 90.3917 14.7591 90.255 15.1793C90.255 15.19 90.2497 15.2061 90.239 15.2221C90.2282 15.2382 90.2229 15.265 90.2229 15.2998C90.2122 15.3212 90.2014 15.3533 90.188 15.3934C90.1773 15.4336 90.172 15.4711 90.172 15.5032C90.1612 15.5246 90.1559 15.5487 90.1559 15.5701V15.637C90.1559 15.6825 90.1639 15.728 90.1827 15.7735C90.1988 15.819 90.2309 15.8485 90.2765 15.8592C90.3006 15.8699 90.3247 15.8779 90.3542 15.886C90.3837 15.8913 90.4131 15.8886 90.448 15.8779C90.515 15.8779 90.582 15.8645 90.6436 15.8351C90.7052 15.8057 90.7722 15.7762 90.8392 15.7414C90.9652 15.6611 91.0885 15.5594 91.2144 15.4363C91.3404 15.3105 91.4529 15.182 91.5547 15.0455C91.6566 14.9197 91.745 14.7966 91.82 14.6707C91.8951 14.5449 91.9487 14.4432 91.9808 14.3656C91.9915 14.3442 92.0049 14.3201 92.0157 14.2987C92.0264 14.2773 92.0398 14.2532 92.0505 14.2318C92.0505 14.2104 92.0559 14.1863 92.0666 14.1649C92.0773 14.1434 92.0907 14.1194 92.1014 14.0979L92.9884 14.4887L92.9804 14.478ZM87.5753 12.7917C87.5753 12.6552 87.5565 12.5482 87.5163 12.4679C87.4761 12.3876 87.377 12.3474 87.2188 12.3474C87.1626 12.3474 87.1063 12.3528 87.0473 12.3635C86.9911 12.3742 86.9348 12.3929 86.8758 12.4143C86.6588 12.5053 86.4444 12.6633 86.2273 12.8908C86.0103 13.1183 85.8173 13.3619 85.6485 13.6242C85.5225 13.8062 85.4127 13.9855 85.3162 14.1595C85.2197 14.3362 85.1474 14.4861 85.1045 14.6119C85.0938 14.6467 85.0723 14.7029 85.0455 14.7832C85.0161 14.8635 84.9919 14.9545 84.9678 15.0562C84.9437 15.1365 84.9223 15.2168 84.9008 15.3024C84.8767 15.3881 84.8606 15.4764 84.8499 15.5674C84.8285 15.6343 84.8124 15.7093 84.807 15.7896C84.8017 15.8699 84.799 15.9422 84.799 16.0118C84.799 16.1831 84.8285 16.3249 84.8848 16.4373C84.941 16.5498 85.0429 16.6086 85.1902 16.6086C85.5199 16.6086 85.812 16.4721 86.0692 16.1991C86.3238 15.9261 86.5435 15.6263 86.7258 15.2971C86.8276 15.1258 86.9133 14.9625 86.9803 14.8046C87.0473 14.6467 87.1117 14.5048 87.1679 14.379C87.3046 14.0284 87.4064 13.7205 87.4761 13.4609C87.5431 13.1986 87.5779 12.9791 87.5779 12.7971L87.5753 12.7917Z" fill="#F37421"/>
<path fill-rule="evenodd" clip-rule="evenodd" d="M98.5999 14.4781C98.6562 15.4203 98.3507 16.1376 97.6807 16.6328C97.0108 17.1253 96.2712 17.4144 95.4645 17.492C95.3627 17.5027 95.2636 17.5107 95.1671 17.5188C95.0706 17.5241 94.9768 17.5268 94.8857 17.5268C94.7732 17.5268 94.6526 17.5241 94.5266 17.5188C94.4033 17.5134 94.2774 17.5 94.1514 17.4759C93.8218 17.4411 93.5003 17.3635 93.1867 17.2377C92.8732 17.1119 92.6052 16.9326 92.3774 16.6917C92.2193 16.4989 92.1014 16.2955 92.0291 16.0787C91.9567 15.8619 91.9192 15.6424 91.9192 15.4149C91.9192 15.2891 91.9272 15.166 91.9433 15.0402C91.9594 14.9144 91.9862 14.7912 92.021 14.6654C92.1014 14.371 92.2595 14.1408 92.498 13.9749C92.7365 13.8089 92.9991 13.734 93.2832 13.7447H93.452C93.4761 13.7447 93.5003 13.7473 93.5297 13.7527C93.5592 13.758 93.5887 13.7661 93.6235 13.7795L95.1403 11.6676L98.3614 10.8512C98.3962 11.4534 98.4311 12.0584 98.4713 12.6633C98.5115 13.2709 98.5543 13.8758 98.5999 14.4754V14.4781ZM95.4458 12.9791L94.4221 14.3416C94.4891 14.4326 94.5373 14.5316 94.5668 14.6387C94.5963 14.7457 94.6097 14.8582 94.6097 14.9706C94.6097 15.083 94.5936 15.1927 94.5588 15.2945C94.5239 15.3962 94.473 15.4925 94.406 15.5835C94.2935 15.7548 94.138 15.886 93.9451 15.9824C93.7522 16.0787 93.5539 16.1269 93.3475 16.1269H93.2618C93.2618 16.1269 93.235 16.1242 93.2189 16.1189C93.2028 16.1135 93.1867 16.1108 93.176 16.1108C93.2564 16.2233 93.3582 16.3223 93.4815 16.4079C93.6074 16.4936 93.7441 16.5364 93.8915 16.5364C94.3578 16.5364 94.7303 16.4106 95.009 16.1617C95.2877 15.9128 95.427 15.5434 95.427 15.0562C95.4377 14.7056 95.4431 14.3549 95.4431 14.0097V12.9791H95.4458Z" fill="#F37421"/>
<path d="M105.01 14.4941C104.989 14.5503 104.962 14.6039 104.932 14.6547C104.903 14.7056 104.879 14.7591 104.855 14.8153C104.672 15.1793 104.474 15.53 104.257 15.8699C104.043 16.2099 103.78 16.5177 103.472 16.7907C103.188 17.0396 102.85 17.2377 102.456 17.3876C102.065 17.5348 101.612 17.6098 101.1 17.6098H100.998C100.679 17.599 100.377 17.5348 100.087 17.4224C99.7978 17.31 99.562 17.1146 99.3798 16.8442C99.2672 16.6729 99.1842 16.4936 99.1332 16.2982C99.0823 16.1055 99.0555 15.9074 99.0555 15.7013C99.0555 15.6451 99.0582 15.5916 99.0636 15.5407C99.0689 15.4898 99.077 15.4363 99.0904 15.3801C99.1145 15.2222 99.144 15.0616 99.1842 14.9037C99.2244 14.7457 99.2672 14.5905 99.3128 14.4433C99.3798 14.2613 99.4468 14.0792 99.5084 13.8972C99.5701 13.7152 99.6317 13.5279 99.688 13.3351C99.7442 13.1531 99.8032 12.9711 99.8675 12.7891C99.9292 12.6071 99.9961 12.4251 100.063 12.2431H99.3289L99.6183 11.4267H100.353C100.409 11.2554 100.465 11.0894 100.524 10.9235C100.58 10.7575 100.645 10.5916 100.712 10.4202C100.768 10.2623 100.824 10.099 100.883 9.93577C100.939 9.76982 100.996 9.60387 101.055 9.43256C101.43 9.37635 101.805 9.32282 102.18 9.27196C102.555 9.22111 102.931 9.16757 103.306 9.11136C103.488 9.08995 103.675 9.06318 103.868 9.03374C104.061 9.0043 104.249 8.98021 104.431 8.95612C104.364 9.15954 104.292 9.36564 104.219 9.56907C104.144 9.7725 104.075 9.9786 104.008 10.182C103.938 10.3855 103.868 10.5942 103.793 10.803C103.721 11.0118 103.649 11.2206 103.579 11.424H104.501L104.195 12.2404H103.292C103.212 12.4786 103.131 12.7195 103.046 12.9631C102.96 13.2067 102.88 13.4529 102.799 13.7045C102.708 13.9534 102.622 14.2024 102.545 14.4459C102.464 14.6895 102.378 14.9304 102.287 15.1686C102.266 15.2489 102.244 15.3239 102.228 15.3988C102.212 15.4738 102.202 15.538 102.202 15.5942C102.202 15.6959 102.226 15.7682 102.269 15.8084C102.314 15.8485 102.376 15.8673 102.456 15.8673C102.523 15.8673 102.601 15.8512 102.687 15.8164C102.772 15.7816 102.861 15.7361 102.952 15.6799C102.997 15.6451 103.046 15.613 103.097 15.5782C103.148 15.5434 103.196 15.5032 103.241 15.4577C103.458 15.265 103.633 15.0482 103.769 14.81C103.906 14.5717 104.029 14.3282 104.144 14.0792L105.015 14.4888L105.01 14.4941Z" fill="#F37421"/>
<path fill-rule="evenodd" clip-rule="evenodd" d="M112.848 14.478C112.564 15.0455 112.245 15.5621 111.894 16.0278C111.543 16.4936 111.053 16.8736 110.429 17.1681C110.053 17.3394 109.659 17.4625 109.244 17.5428C108.829 17.6231 108.405 17.6633 107.974 17.6633H107.77C107.703 17.6633 107.639 17.6579 107.583 17.6472C107.309 17.6365 107.044 17.6044 106.781 17.5535C106.521 17.5027 106.264 17.4384 106.015 17.3581C105.356 17.1306 104.812 16.7853 104.388 16.3196C103.962 15.8538 103.748 15.3024 103.748 14.6681C103.748 14.5101 103.761 14.3469 103.791 14.1836C103.82 14.0203 103.863 13.8517 103.919 13.6804C104.147 13.0005 104.608 12.4679 105.299 12.0878C105.993 11.7077 106.73 11.4668 107.516 11.3651C107.687 11.3437 107.853 11.3249 108.019 11.3142C108.186 11.3035 108.346 11.2982 108.504 11.2982C108.743 11.2982 108.976 11.3089 109.204 11.333C109.432 11.3544 109.641 11.3945 109.834 11.4507C109.868 11.4614 109.898 11.4695 109.927 11.4775C109.957 11.4828 109.986 11.4909 110.021 11.5043C110.351 11.5953 110.662 11.7532 110.951 11.9807C111.24 12.2082 111.391 12.5134 111.404 12.9015C111.425 13.5144 111.171 13.9962 110.638 14.3495C110.104 14.7002 109.517 14.9572 108.882 15.1151C108.529 15.2061 108.188 15.2676 107.859 15.3024C107.529 15.3372 107.245 15.3479 107.006 15.3372C107.063 15.7468 107.218 16.0599 107.475 16.2821C107.73 16.5043 108.068 16.614 108.488 16.614C109.341 16.614 110.056 16.3758 110.638 15.8993C111.216 15.4229 111.672 14.8206 112.002 14.0953L112.854 14.4861L112.848 14.478ZM109.729 12.5535C109.729 12.3608 109.678 12.2243 109.576 12.144C109.474 12.0637 109.327 12.0182 109.134 12.0075C108.713 11.9968 108.349 12.1547 108.043 12.4839C107.735 12.8131 107.502 13.1772 107.344 13.5733C107.288 13.7098 107.242 13.8463 107.207 13.9828C107.173 14.1194 107.146 14.2425 107.122 14.3576C107.258 14.3469 107.4 14.3281 107.548 14.3067C107.695 14.2853 107.843 14.2505 107.99 14.205C108.421 14.0926 108.815 13.9052 109.174 13.6429C109.533 13.3806 109.716 13.0192 109.729 12.5535Z" fill="#F37421"/>
<path d="M117.637 14.4941C117.227 15.356 116.745 16.0921 116.187 16.6997C115.63 17.3073 114.818 17.6098 113.749 17.6098C113.693 17.6098 113.634 17.6071 113.569 17.6017C113.508 17.5964 113.446 17.5937 113.39 17.5937C113.106 17.5589 112.827 17.4893 112.554 17.3796C112.28 17.2725 112.061 17.0985 111.889 16.8603C111.776 16.7024 111.691 16.5257 111.634 16.333C111.578 16.1403 111.549 15.9475 111.549 15.7548C111.549 15.7093 111.549 15.6665 111.557 15.6263C111.562 15.5862 111.565 15.5487 111.565 15.5166C111.586 15.3453 111.616 15.182 111.651 15.0214C111.685 14.8635 111.731 14.7083 111.787 14.561C112.162 13.4823 112.535 12.401 112.905 11.3169C113.274 10.2329 113.642 9.15686 114.003 8.09155H117.361C116.951 9.27196 116.544 10.4524 116.134 11.6328C115.724 12.8132 115.322 13.9936 114.923 15.174C114.877 15.2757 114.842 15.3694 114.821 15.455C114.799 15.5407 114.786 15.6103 114.786 15.6692C114.786 15.7361 114.815 15.7923 114.872 15.8298C114.928 15.8699 115.019 15.8833 115.145 15.8726C115.236 15.8726 115.349 15.8351 115.485 15.7629C115.622 15.6879 115.764 15.5835 115.911 15.447C116.115 15.2436 116.284 15.0268 116.415 14.7993C116.547 14.5717 116.667 14.3335 116.782 14.0846L117.634 14.4941H117.637Z" fill="#F37421"/>
<path fill-rule="evenodd" clip-rule="evenodd" d="M125.481 14.478C125.197 15.0455 124.878 15.5621 124.527 16.0278C124.176 16.4936 123.685 16.8736 123.061 17.1681C122.686 17.3394 122.292 17.4625 121.877 17.5428C121.461 17.6231 121.038 17.6633 120.606 17.6633H120.403C120.336 17.6633 120.271 17.6579 120.215 17.6472C119.942 17.6365 119.676 17.6044 119.414 17.5535C119.151 17.5027 118.897 17.4384 118.647 17.3581C117.988 17.1306 117.444 16.7853 117.018 16.3196C116.592 15.8538 116.378 15.3024 116.378 14.6681C116.378 14.5101 116.391 14.3469 116.421 14.1836C116.45 14.0203 116.493 13.8517 116.549 13.6804C116.777 13.0005 117.238 12.4679 117.929 12.0878C118.623 11.7077 119.36 11.4668 120.145 11.3651C120.317 11.3437 120.483 11.3249 120.649 11.3142C120.813 11.3035 120.976 11.2982 121.134 11.2982C121.373 11.2982 121.606 11.3089 121.834 11.333C122.062 11.3544 122.271 11.3945 122.463 11.4507C122.498 11.4614 122.528 11.4695 122.557 11.4775C122.587 11.4828 122.616 11.4909 122.651 11.5043C122.981 11.5953 123.292 11.7532 123.581 11.9807C123.87 12.2082 124.02 12.5134 124.034 12.9015C124.058 13.5144 123.801 13.9962 123.267 14.3495C122.734 14.7002 122.147 14.9572 121.512 15.1151C121.158 15.2061 120.818 15.2676 120.488 15.3024C120.159 15.3372 119.875 15.3479 119.636 15.3372C119.693 15.7468 119.851 16.0599 120.105 16.2821C120.36 16.5043 120.697 16.614 121.118 16.614C121.97 16.614 122.686 16.3758 123.267 15.8993C123.846 15.4229 124.302 14.8206 124.631 14.0953L125.484 14.4861L125.481 14.478ZM122.362 12.5535C122.362 12.3608 122.311 12.2243 122.209 12.144C122.107 12.0637 121.96 12.0182 121.764 12.0075C121.343 11.9968 120.979 12.1547 120.673 12.4839C120.368 12.8131 120.135 13.1772 119.974 13.5733C119.918 13.7098 119.872 13.8463 119.837 13.9828C119.802 14.1194 119.776 14.2425 119.752 14.3576C119.888 14.3469 120.03 14.3281 120.178 14.3067C120.325 14.2853 120.472 14.2505 120.62 14.205C121.051 14.0926 121.448 13.9052 121.804 13.6429C122.161 13.3806 122.348 13.0192 122.359 12.5535H122.362Z" fill="#F37421"/>
<path d="M134.394 12.2645C134.418 12.3314 134.429 12.401 134.429 12.4679V12.6553C134.429 13.0755 134.3 13.4074 134.045 13.651C133.791 13.8946 133.509 14.0177 133.201 14.0177H133.15C132.912 14.0177 132.684 13.9374 132.47 13.7795C132.253 13.6215 132.1 13.3646 132.009 13.0139C131.974 12.9122 131.931 12.8346 131.88 12.7837C131.829 12.7329 131.77 12.7115 131.701 12.7249C131.588 12.7249 131.459 12.7891 131.317 12.9203C131.175 13.0514 131.025 13.2307 130.867 13.4556C130.594 13.8062 130.361 14.1997 130.168 14.6306C129.975 15.0616 129.803 15.4979 129.656 15.9422C129.589 16.1349 129.525 16.3223 129.468 16.5043C129.412 16.6863 129.348 16.8683 129.281 17.0503C129.259 17.1173 129.235 17.1868 129.214 17.2538C129.192 17.3207 129.168 17.3903 129.147 17.4572H125.993L127.408 13.5064C127.429 13.4609 127.442 13.4208 127.442 13.3887V13.303C127.442 13.1772 127.394 13.0969 127.298 13.0568C127.201 13.0166 127.091 13.0032 126.965 13.0139C126.671 13.0487 126.408 13.1852 126.18 13.4235C125.952 13.6617 125.765 13.916 125.618 14.189C125.583 14.2452 125.551 14.3068 125.516 14.3764C125.481 14.4433 125.454 14.5075 125.43 14.5637L124.578 14.2238C124.873 13.4529 125.309 12.757 125.883 12.1387C126.456 11.5204 127.177 11.1885 128.04 11.143C128.12 11.1322 128.201 11.1269 128.287 11.1269C128.372 11.1269 128.461 11.1322 128.552 11.143C128.927 11.1644 129.289 11.2607 129.635 11.424C129.98 11.59 130.256 11.8362 130.463 12.1654C130.712 11.9834 130.977 11.8148 131.256 11.6542C131.534 11.4963 131.821 11.3705 132.116 11.2795C132.253 11.234 132.387 11.2018 132.515 11.1858C132.644 11.1697 132.773 11.159 132.898 11.159C133.07 11.159 133.236 11.1804 133.402 11.2259C133.568 11.2714 133.724 11.3383 133.871 11.4294C134.019 11.5311 134.137 11.6569 134.22 11.8041C134.305 11.9513 134.364 12.1039 134.399 12.2645H134.394Z" fill="#F37421"/>
<path fill-rule="evenodd" clip-rule="evenodd" d="M140.051 14.4941C140.029 14.5503 140.003 14.6038 139.973 14.6547C139.944 14.7056 139.914 14.7591 139.879 14.8153C139.708 15.1793 139.515 15.53 139.301 15.8699C139.084 16.2098 138.824 16.5177 138.515 16.7907C138.221 17.0396 137.883 17.2323 137.502 17.3688C137.122 17.5053 136.733 17.5856 136.334 17.6071H136.163C135.991 17.6071 135.825 17.5964 135.659 17.5723C135.495 17.5509 135.332 17.5107 135.174 17.4518C134.732 17.3046 134.421 17.0717 134.244 16.7532C134.067 16.4347 133.979 16.0894 133.979 15.7147C133.979 15.5219 133.997 15.3265 134.037 15.1285C134.078 14.9304 134.126 14.7404 134.182 14.5583C134.364 14.0364 134.544 13.5171 134.718 13.0005C134.895 12.4839 135.075 11.9647 135.254 11.4427H138.612C138.51 11.7479 138.406 12.0583 138.296 12.3715C138.188 12.6847 138.076 12.9925 137.963 13.3003C137.851 13.6188 137.738 13.932 137.631 14.2452C137.524 14.5583 137.419 14.8662 137.315 15.174C137.315 15.1847 137.312 15.2007 137.307 15.2168C137.301 15.2329 137.293 15.2543 137.28 15.2757C137.256 15.3426 137.237 15.4095 137.221 15.4711C137.205 15.5327 137.194 15.5942 137.194 15.6504C137.205 15.7173 137.237 15.7762 137.288 15.8217C137.339 15.8672 137.427 15.8833 137.553 15.8726C137.644 15.8726 137.754 15.8351 137.886 15.7628C138.017 15.6879 138.156 15.5835 138.304 15.447C138.497 15.2543 138.657 15.0562 138.781 14.8501C138.907 14.6467 139.025 14.4299 139.14 14.2024C139.15 14.1809 139.161 14.1595 139.167 14.1435C139.172 14.1274 139.18 14.106 139.191 14.0846C139.236 14.106 139.284 14.1301 139.335 14.1515C139.386 14.1729 139.435 14.197 139.48 14.2184C139.504 14.2291 139.526 14.2398 139.547 14.2532C139.571 14.2639 139.593 14.2746 139.617 14.288C139.684 14.3228 139.756 14.3549 139.828 14.3897C139.904 14.4245 139.973 14.4566 140.04 14.4914L140.051 14.4941ZM139.472 9.48875C139.494 9.53426 139.51 9.57708 139.515 9.61723C139.52 9.65738 139.523 9.70021 139.523 9.74571C139.512 9.94914 139.443 10.1365 139.319 10.3078C139.193 10.4791 139.051 10.6076 138.893 10.6986C138.791 10.7441 138.671 10.7816 138.534 10.8083C138.397 10.8378 138.25 10.8619 138.089 10.886C137.931 10.8967 137.765 10.9074 137.596 10.9208C137.425 10.9315 137.261 10.9422 137.103 10.9556C137.023 10.9663 136.942 10.9716 136.857 10.9716C136.771 10.9716 136.688 10.977 136.61 10.9877C136.632 10.9529 136.658 10.9154 136.688 10.8779C136.717 10.8378 136.741 10.8003 136.765 10.7682C136.902 10.5862 137.042 10.4042 137.184 10.2222C137.326 10.0401 137.476 9.87152 137.636 9.71092C137.749 9.5985 137.856 9.50214 137.953 9.42184C138.049 9.34154 138.138 9.27997 138.218 9.23447C138.298 9.18897 138.381 9.15417 138.473 9.13276C138.564 9.11134 138.66 9.09796 138.762 9.09796H138.829C138.966 9.10867 139.094 9.14614 139.212 9.2077C139.333 9.26927 139.418 9.36295 139.477 9.48875H139.472Z" fill="#F37421"/>
<path fill-rule="evenodd" clip-rule="evenodd" d="M150.767 14.478C150.347 15.3747 149.843 16.1215 149.259 16.7157C148.674 17.3126 147.836 17.6097 146.745 17.6097H146.659C146.295 17.599 145.952 17.516 145.627 17.3635C145.303 17.2109 145.062 16.9566 144.904 16.606C144.598 16.8897 144.247 17.1199 143.856 17.2966C143.465 17.4732 143.063 17.5776 142.656 17.6124C142.61 17.6231 142.562 17.6285 142.511 17.6285H142.35C141.951 17.6178 141.568 17.5375 141.2 17.3902C140.831 17.243 140.504 16.9941 140.22 16.6408C140.003 16.3785 139.847 16.1081 139.751 15.8244C139.654 15.5407 139.606 15.2516 139.606 14.9572C139.606 14.4352 139.745 13.9293 140.024 13.4422C140.303 12.955 140.656 12.5455 141.091 12.2163C141.42 11.9673 141.801 11.7585 142.232 11.5953C142.664 11.432 143.108 11.3383 143.561 11.3142C143.607 11.3035 143.655 11.2982 143.706 11.2982H143.851C144.215 11.2982 144.566 11.3517 144.907 11.4588C145.247 11.5658 145.555 11.7345 145.828 11.962L146 11.4507H149.326C149.256 11.6542 149.186 11.8629 149.111 12.0717C149.036 12.2805 148.966 12.4893 148.899 12.6927C148.752 13.1022 148.607 13.5118 148.465 13.9266C148.323 14.3415 148.184 14.7591 148.047 15.1793C148.047 15.19 148.042 15.2061 148.031 15.2221C148.02 15.2382 148.015 15.265 148.015 15.2998C148.004 15.3212 147.994 15.3533 147.98 15.3934C147.97 15.4336 147.964 15.4711 147.964 15.5032C147.953 15.5246 147.948 15.5487 147.948 15.5701V15.637C147.948 15.6825 147.956 15.728 147.975 15.7735C147.991 15.819 148.023 15.8485 148.069 15.8592C148.09 15.8699 148.117 15.8779 148.146 15.886C148.176 15.8913 148.205 15.8886 148.24 15.8779C148.307 15.8779 148.374 15.8645 148.436 15.8351C148.497 15.8057 148.564 15.7762 148.631 15.7414C148.757 15.6611 148.881 15.5594 149.007 15.4363C149.133 15.3105 149.245 15.182 149.347 15.0455C149.449 14.9197 149.537 14.7966 149.612 14.6707C149.687 14.5449 149.741 14.4432 149.773 14.3656C149.784 14.3442 149.794 14.3201 149.808 14.2987C149.819 14.2773 149.829 14.2532 149.843 14.2318C149.843 14.2104 149.848 14.1863 149.859 14.1649C149.87 14.1434 149.883 14.1194 149.894 14.0979L150.781 14.4887L150.767 14.478ZM145.362 12.7917C145.362 12.6552 145.343 12.5482 145.303 12.4679C145.263 12.3876 145.164 12.3474 145.006 12.3474C144.949 12.3474 144.893 12.3528 144.834 12.3635C144.778 12.3742 144.722 12.3929 144.663 12.4143C144.446 12.5053 144.231 12.6633 144.014 12.8908C143.797 13.1183 143.604 13.3619 143.435 13.6242C143.309 13.8062 143.2 13.9855 143.103 14.1595C143.007 14.3362 142.937 14.4861 142.891 14.6119C142.881 14.6467 142.859 14.7029 142.832 14.7832C142.803 14.8635 142.779 14.9545 142.755 15.0562C142.731 15.1365 142.709 15.2168 142.688 15.3024C142.666 15.3881 142.648 15.4764 142.637 15.5674C142.615 15.6343 142.599 15.7093 142.594 15.7896C142.589 15.8699 142.586 15.9422 142.586 16.0118C142.586 16.1831 142.615 16.3249 142.672 16.4373C142.728 16.5498 142.83 16.6086 142.977 16.6086C143.307 16.6086 143.599 16.4721 143.856 16.1991C144.113 15.9261 144.33 15.6263 144.513 15.2971C144.614 15.1258 144.7 14.9625 144.767 14.8046C144.834 14.6467 144.899 14.5048 144.955 14.379C145.091 14.0284 145.193 13.7205 145.263 13.4609C145.33 13.1986 145.365 12.9791 145.365 12.7971L145.362 12.7917Z" fill="#F37421"/>
</g>
<defs>
<clipPath id="clip0_154_1867">
<rect width="152" height="90" fill="white"/>
</clipPath>
</defs>
</svg>
