<svg width="30" height="30" viewBox="0 0 30 30" fill="none" xmlns="http://www.w3.org/2000/svg">
<path d="M10.0258 17.1657C10.3292 16.5554 10.5 15.8665 10.5 15.1374C10.5 14.4083 10.3292 13.7194 10.0258 13.1091M10.0258 17.1657C9.287 18.6517 7.76173 19.6718 6 19.6718C3.51472 19.6718 1.5 17.6417 1.5 15.1374C1.5 12.6332 3.51472 10.6031 6 10.6031C7.76173 10.6031 9.287 11.6232 10.0258 13.1091M10.0258 17.1657L19.9742 22.1778M10.0258 13.1091L19.9742 8.09698M19.9742 8.09698C20.713 9.58296 22.2383 10.6031 24 10.6031C26.4853 10.6031 28.5 8.57296 28.5 6.06871C28.5 3.56446 26.4853 1.53436 24 1.53436C21.5147 1.53436 19.5 3.56446 19.5 6.06871C19.5 6.79779 19.6708 7.48668 19.9742 8.09698ZM19.9742 22.1778C19.6708 22.7881 19.5 23.477 19.5 24.2061C19.5 26.7104 21.5147 28.7405 24 28.7405C26.4853 28.7405 28.5 26.7104 28.5 24.2061C28.5 21.7019 26.4853 19.6718 24 19.6718C22.2383 19.6718 20.713 20.6919 19.9742 22.1778Z" stroke="#F6A738" stroke-width="2" stroke-linecap="round" stroke-linejoin="round"/>
</svg>
