<svg width="36" height="36" viewBox="0 0 36 36" fill="none" xmlns="http://www.w3.org/2000/svg">
<path d="M17.9999 2.39999C9.3983 2.39999 2.3999 9.39839 2.3999 18C2.3999 26.6016 9.3983 33.6 17.9999 33.6C26.6015 33.6 33.5999 26.6016 33.5999 18C33.5999 9.39839 26.6015 2.39999 17.9999 2.39999ZM13.9991 7.19999H21.9983C25.7483 7.19999 28.7999 10.2504 28.7999 13.9992V21.9984C28.7999 25.7484 25.7495 28.8 22.0007 28.8H14.0015C10.2515 28.8 7.1999 25.7496 7.1999 22.0008V14.0016C7.1999 10.2516 10.2503 7.19999 13.9991 7.19999ZM13.9991 9.59999C11.5739 9.59999 9.5999 11.5752 9.5999 14.0016V22.0008C9.5999 24.426 11.5751 26.4 14.0015 26.4H22.0007C24.4259 26.4 26.3999 24.4248 26.3999 21.9984V13.9992C26.3999 11.574 24.4247 9.59999 21.9983 9.59999H13.9991ZM23.6015 11.5992C24.0431 11.5992 24.4007 11.9568 24.4007 12.3984C24.4007 12.84 24.0431 13.2 23.6015 13.2C23.1599 13.2 22.7999 12.84 22.7999 12.3984C22.7999 11.9568 23.1599 11.5992 23.6015 11.5992ZM17.9999 12C21.3083 12 23.9999 14.6916 23.9999 18C23.9999 21.3084 21.3083 24 17.9999 24C14.6915 24 11.9999 21.3084 11.9999 18C11.9999 14.6916 14.6915 12 17.9999 12ZM17.9999 14.4C17.0451 14.4 16.1294 14.7793 15.4543 15.4544C14.7792 16.1295 14.3999 17.0452 14.3999 18C14.3999 18.9548 14.7792 19.8704 15.4543 20.5456C16.1294 21.2207 17.0451 21.6 17.9999 21.6C18.9547 21.6 19.8704 21.2207 20.5455 20.5456C21.2206 19.8704 21.5999 18.9548 21.5999 18C21.5999 17.0452 21.2206 16.1295 20.5455 15.4544C19.8704 14.7793 18.9547 14.4 17.9999 14.4Z" fill="#F6A738"/>
</svg>
