<svg width="36" height="36" viewBox="0 0 36 36" fill="none" xmlns="http://www.w3.org/2000/svg">
<path d="M17.9999 2.3999C9.3983 2.3999 2.3999 9.3983 2.3999 17.9999C2.3999 26.6015 9.3983 33.5999 17.9999 33.5999C26.6015 33.5999 33.5999 26.6015 33.5999 17.9999C33.5999 9.3983 26.6015 2.3999 17.9999 2.3999ZM13.9991 7.1999H21.9983C25.7483 7.1999 28.7999 10.2503 28.7999 13.9991V21.9983C28.7999 25.7483 25.7495 28.7999 22.0007 28.7999H14.0015C10.2515 28.7999 7.1999 25.7495 7.1999 22.0007V14.0015C7.1999 10.2515 10.2503 7.1999 13.9991 7.1999ZM13.9991 9.5999C11.5739 9.5999 9.5999 11.5751 9.5999 14.0015V22.0007C9.5999 24.4259 11.5751 26.3999 14.0015 26.3999H22.0007C24.4259 26.3999 26.3999 24.4247 26.3999 21.9983V13.9991C26.3999 11.5739 24.4247 9.5999 21.9983 9.5999H13.9991ZM23.6015 11.5991C24.0431 11.5991 24.4007 11.9567 24.4007 12.3983C24.4007 12.8399 24.0431 13.1999 23.6015 13.1999C23.1599 13.1999 22.7999 12.8399 22.7999 12.3983C22.7999 11.9567 23.1599 11.5991 23.6015 11.5991ZM17.9999 11.9999C21.3083 11.9999 23.9999 14.6915 23.9999 17.9999C23.9999 21.3083 21.3083 23.9999 17.9999 23.9999C14.6915 23.9999 11.9999 21.3083 11.9999 17.9999C11.9999 14.6915 14.6915 11.9999 17.9999 11.9999ZM17.9999 14.3999C17.0451 14.3999 16.1294 14.7792 15.4543 15.4543C14.7792 16.1294 14.3999 17.0451 14.3999 17.9999C14.3999 18.9547 14.7792 19.8704 15.4543 20.5455C16.1294 21.2206 17.0451 21.5999 17.9999 21.5999C18.9547 21.5999 19.8704 21.2206 20.5455 20.5455C21.2206 19.8704 21.5999 18.9547 21.5999 17.9999C21.5999 17.0451 21.2206 16.1294 20.5455 15.4543C19.8704 14.7792 18.9547 14.3999 17.9999 14.3999Z" fill="#F6A738"/>
</svg>
