<svg width="30" height="30" viewBox="0 0 30 30" fill="none" xmlns="http://www.w3.org/2000/svg">
<rect width="30" height="30" fill="#F6A738"/>
<path fill-rule="evenodd" clip-rule="evenodd" d="M12.429 10.969H16.143V12.819C16.678 11.755 18.05 10.799 20.111 10.799C24.062 10.799 25 12.917 25 16.803V24H21V17.688C21 15.475 20.465 14.227 19.103 14.227C17.214 14.227 16.429 15.572 16.429 17.687V24H12.429V10.969ZM5.57 23.83H9.57V10.799H5.57V23.83ZM10.143 6.55C10.1431 6.88528 10.0767 7.21724 9.94739 7.52659C9.81812 7.83594 9.62865 8.11651 9.39 8.352C8.9064 8.83262 8.25181 9.10165 7.57 9.1C6.88939 9.09954 6.23631 8.8312 5.752 8.353C5.51421 8.11671 5.32539 7.83582 5.19634 7.52643C5.0673 7.21704 5.00058 6.88522 5 6.55C5 5.873 5.27 5.225 5.753 4.747C6.23689 4.26816 6.89024 3.9997 7.571 4C8.253 4 8.907 4.269 9.39 4.747C9.872 5.225 10.143 5.873 10.143 6.55Z" fill="#3E2B11"/>
</svg>
