<svg width="36" height="36" viewBox="0 0 36 36" fill="none" xmlns="http://www.w3.org/2000/svg">
<path d="M18.0001 3.6001C10.0477 3.6001 3.6001 10.0477 3.6001 18.0001C3.6001 25.9525 10.0477 32.4001 18.0001 32.4001C25.9525 32.4001 32.4001 25.9525 32.4001 18.0001C32.4001 10.0477 25.9525 3.6001 18.0001 3.6001ZM12.5953 10.0837C13.6057 10.0837 14.2789 10.7569 14.2789 11.6545C14.2789 12.5521 13.6057 13.2253 12.4837 13.2253C11.4733 13.2265 10.8001 12.5521 10.8001 11.6545C10.8001 10.7569 11.4733 10.0837 12.5953 10.0837ZM14.4001 24.0001H10.8001V14.4001H14.4001V24.0001ZM26.4001 24.0001H23.0113V18.7537C23.0113 17.3029 22.1077 16.9681 21.7693 16.9681C21.4309 16.9681 20.3005 17.1913 20.3005 18.7537C20.3005 18.9769 20.3005 24.0001 20.3005 24.0001H16.8001V14.4001H20.3017V15.7393C20.7529 14.9581 21.6565 14.4001 23.3509 14.4001C25.0453 14.4001 26.4001 15.7393 26.4001 18.7537V24.0001Z" fill="#F6A738"/>
</svg>
