<svg width="24" height="25" viewBox="0 0 24 25" fill="none" xmlns="http://www.w3.org/2000/svg">
<path d="M17.6569 16.784C16.7215 17.7265 14.7667 19.6962 13.4191 21.0541C12.6368 21.8424 11.3636 21.8428 10.5813 21.0545C9.25721 19.7203 7.34026 17.7887 6.34315 16.784C3.21895 13.636 3.21895 8.53197 6.34315 5.38392C9.46734 2.23588 14.5327 2.23588 17.6569 5.38392C20.7811 8.53197 20.7811 13.636 17.6569 16.784Z" stroke="#0A0A0A" stroke-width="2" stroke-linecap="round" stroke-linejoin="round"/>
<path d="M15 11.084C15 12.7535 13.6569 14.1069 12 14.1069C10.3431 14.1069 9 12.7535 9 11.084C9 9.41446 10.3431 8.06106 12 8.06106C13.6569 8.06106 15 9.41446 15 11.084Z" stroke="#0A0A0A" stroke-width="2" stroke-linecap="round" stroke-linejoin="round"/>
</svg>
