<svg width="40" height="32" viewBox="0 0 40 32" fill="none" xmlns="http://www.w3.org/2000/svg">
<g clip-path="url(#clip0_21_3527)">
<path d="M7.27156 30.9392V28.8813C7.27156 28.0922 6.79125 27.5778 5.96797 27.5778C5.55641 27.5778 5.11047 27.715 4.80172 28.1609C4.56172 27.7836 4.21875 27.5778 3.70422 27.5778C3.36109 27.5778 3.01828 27.6806 2.74375 28.058V27.6464H2.02344V30.9392H2.74375V29.1213C2.74375 28.5383 3.0525 28.2638 3.53281 28.2638C4.01281 28.2638 4.25313 28.5725 4.25313 29.1213V30.9392H4.97344V29.1213C4.97344 28.5383 5.31625 28.2638 5.76219 28.2638C6.2425 28.2638 6.4825 28.5725 6.4825 29.1213V30.9392H7.27156ZM17.9389 27.6464H16.7728V26.6517H16.0525V27.6464H15.4008V28.298H16.0523V29.8073C16.0523 30.562 16.3611 31.0078 17.1844 31.0078C17.4931 31.0078 17.8359 30.905 18.0763 30.7678L17.8703 30.1503C17.6645 30.2875 17.4245 30.3219 17.253 30.3219C16.91 30.3219 16.7728 30.1161 16.7728 29.773V28.298H17.9389V27.6464ZM24.0445 27.5777C23.633 27.5777 23.3586 27.7836 23.187 28.058V27.6464H22.4667V30.9392H23.187V29.087C23.187 28.5383 23.427 28.2295 23.873 28.2295C24.0102 28.2295 24.1817 28.2639 24.3189 28.2981L24.5247 27.6122C24.3875 27.5778 24.1817 27.5778 24.0445 27.5778V27.5777ZM14.8177 27.9208C14.4745 27.6806 13.9944 27.5778 13.4798 27.5778C12.6567 27.5778 12.108 27.9894 12.108 28.6411C12.108 29.19 12.5195 29.4986 13.2398 29.6016L13.5828 29.6359C13.9602 29.7044 14.1659 29.8073 14.1659 29.9789C14.1659 30.2189 13.8916 30.3905 13.4113 30.3905C12.9311 30.3905 12.5537 30.2189 12.3136 30.0475L11.9706 30.5963C12.348 30.8706 12.8625 31.0078 13.3769 31.0078C14.3373 31.0078 14.8863 30.562 14.8863 29.9445C14.8863 29.3614 14.4403 29.0527 13.7542 28.9498L13.4113 28.9155C13.1025 28.8811 12.8625 28.8127 12.8625 28.6069C12.8625 28.3667 13.1025 28.2295 13.4798 28.2295C13.8916 28.2295 14.3031 28.4009 14.5089 28.5039L14.8177 27.9208ZM33.9575 27.5778C33.5458 27.5778 33.2714 27.7836 33.0998 28.058V27.6464H32.3795V30.9392H33.0998V29.087C33.0998 28.5383 33.34 28.2295 33.7858 28.2295C33.9231 28.2295 34.0947 28.2639 34.2319 28.2981L34.4377 27.6122C34.3005 27.5778 34.0947 27.5778 33.9575 27.5778ZM24.7648 29.2928C24.7648 30.2875 25.4508 31.0078 26.5142 31.0078C26.9944 31.0078 27.3373 30.905 27.6803 30.6306L27.3373 30.0475C27.063 30.2533 26.7886 30.3561 26.4798 30.3561C25.8967 30.3561 25.4852 29.9445 25.4852 29.2928C25.4852 28.6755 25.8967 28.2638 26.4798 28.2295C26.7886 28.2295 27.063 28.3323 27.3373 28.5383L27.6803 27.9552C27.3373 27.6806 26.9944 27.5778 26.5142 27.5778C25.4508 27.5778 24.7648 28.2981 24.7648 29.2928ZM31.4192 29.2928V27.6464H30.6989V28.058C30.4588 27.7494 30.1158 27.5778 29.6698 27.5778C28.7438 27.5778 28.0234 28.2981 28.0234 29.2928C28.0234 30.2875 28.7438 31.0078 29.6698 31.0078C30.15 31.0078 30.4931 30.8364 30.6989 30.5277V30.9392H31.4192V29.2928ZM28.778 29.2928C28.778 28.7097 29.1553 28.2295 29.7727 28.2295C30.3558 28.2295 30.7675 28.6755 30.7675 29.2928C30.7675 29.8759 30.3558 30.3561 29.7727 30.3561C29.1553 30.3217 28.778 29.8759 28.778 29.2928ZM20.1686 27.5778C19.2081 27.5778 18.522 28.2638 18.522 29.2928C18.522 30.3219 19.208 31.0078 20.2028 31.0078C20.683 31.0078 21.1633 30.8706 21.5406 30.562L21.1975 30.0475C20.9231 30.2533 20.5802 30.3905 20.2372 30.3905C19.7913 30.3905 19.3453 30.1847 19.2423 29.6014H21.6778V29.3272C21.7122 28.2638 21.0947 27.5778 20.1684 27.5778H20.1686ZM20.1686 28.1952C20.6144 28.1952 20.9233 28.4697 20.9917 28.9842H19.2767C19.3453 28.5383 19.6541 28.1952 20.1686 28.1952ZM38.0392 29.2928V26.343H37.3189V28.058C37.0788 27.7494 36.7358 27.5778 36.2898 27.5778C35.3638 27.5778 34.6434 28.2981 34.6434 29.2928C34.6434 30.2875 35.3638 31.0078 36.2898 31.0078C36.7702 31.0078 37.1131 30.8364 37.3189 30.5277V30.9392H38.0392V29.2928ZM35.3981 29.2928C35.3981 28.7097 35.7753 28.2295 36.3928 28.2295C36.9759 28.2295 37.3875 28.6755 37.3875 29.2928C37.3875 29.8759 36.9759 30.3561 36.3928 30.3561C35.7753 30.3217 35.3981 29.8759 35.3981 29.2928ZM11.3189 29.2928V27.6464H10.5986V28.058C10.3584 27.7494 10.0155 27.5778 9.56953 27.5778C8.64344 27.5778 7.92312 28.2981 7.92312 29.2928C7.92312 30.2875 8.64344 31.0078 9.56953 31.0078C10.0498 31.0078 10.3928 30.8364 10.5986 30.5277V30.9392H11.3189V29.2928ZM8.64344 29.2928C8.64344 28.7097 9.02078 28.2295 9.63813 28.2295C10.2213 28.2295 10.633 28.6755 10.633 29.2928C10.633 29.8759 10.2213 30.3561 9.63813 30.3561C9.02078 30.3217 8.64344 29.8759 8.64344 29.2928Z" fill="black"/>
<path d="M14.5781 2.64109H25.3828V22.0553H14.5781V2.64109Z" fill="#FF5F00"/>
<path d="M15.2639 12.3483C15.2639 8.40375 17.1161 4.905 19.963 2.64109C17.8708 0.994688 15.2297 0 12.3484 0C5.52234 0 0 5.52234 0 12.3483C0 19.1741 5.52234 24.6966 12.3483 24.6966C15.2295 24.6966 17.8706 23.7019 19.963 22.0553C17.1161 19.8258 15.2639 16.2928 15.2639 12.3483Z" fill="#EB001B"/>
<path d="M39.961 12.3483C39.961 19.1741 34.4387 24.6966 27.6127 24.6966C24.7315 24.6966 22.0904 23.7019 19.998 22.0553C22.8793 19.7916 24.6973 16.2928 24.6973 12.3483C24.6973 8.40375 22.8449 4.905 19.998 2.64109C22.0902 0.994688 24.7315 0 27.6127 0C34.4387 0 39.9612 5.55672 39.9612 12.3483H39.961Z" fill="#F79E1B"/>
</g>
<defs>
<clipPath id="clip0_21_3527">
<rect width="40" height="31.0938" fill="white"/>
</clipPath>
</defs>
</svg>
