<svg width="28" height="28" viewBox="0 0 28 28" fill="none" xmlns="http://www.w3.org/2000/svg">
<circle cx="14" cy="14" r="14" fill="#F6A738"/>
<path d="M19.9033 9.86995C19.128 9.69945 18.4266 9.28773 17.8998 8.69386C17.373 8.1 17.0479 7.35451 16.9711 6.56439V6.22217H14.2877V16.8544C14.2883 17.3262 14.1404 17.7861 13.865 18.1692C13.5896 18.5522 13.2006 18.8389 12.7532 18.9886C12.3058 19.1383 11.8227 19.1434 11.3722 19.0033C10.9217 18.8631 10.5268 18.5848 10.2433 18.2077C9.9893 17.8739 9.83377 17.4757 9.7943 17.0582C9.75482 16.6406 9.83296 16.2203 10.0199 15.8448C10.2068 15.4694 10.4951 15.1537 10.8521 14.9335C11.209 14.7133 11.6205 14.5974 12.0399 14.5988C12.2719 14.5975 12.5027 14.6316 12.7244 14.6999V11.9777C12.4664 11.9458 12.2065 11.9328 11.9466 11.9388C10.9894 11.9644 10.0604 12.2686 9.27346 12.814C8.48648 13.3595 7.87564 14.1227 7.51575 15.01C7.15587 15.8973 7.06254 16.8704 7.24722 17.8099C7.43189 18.7495 7.88655 19.6148 8.55551 20.2999C9.24111 20.997 10.1184 21.4745 11.076 21.6718C12.0336 21.8691 13.0283 21.7772 13.9336 21.408C14.8389 21.0387 15.6139 20.4086 16.1603 19.5978C16.7067 18.787 16.9997 17.8321 17.0022 16.8544V11.4099C18.0844 12.183 19.3822 12.5966 20.7122 12.5922V9.94772C20.4509 9.9488 20.1903 9.92274 19.9344 9.86995H19.9033Z" fill="#3E2B11"/>
</svg>
