<svg width="30" height="30" viewBox="0 0 30 30" fill="none" xmlns="http://www.w3.org/2000/svg">
<rect width="30" height="30" fill="#F6A738"/>
<path d="M14.0306 3.02025C15.3487 3 16.6593 3.012 17.9683 3C18.0477 4.53083 18.6021 6.09016 19.7306 7.17247C20.8569 8.28178 22.45 8.78956 24 8.96132V12.9883C22.5474 12.941 21.088 12.641 19.7699 12.02C19.1958 11.762 18.661 11.4297 18.1375 11.0899C18.1307 14.0121 18.1496 16.9305 18.1187 19.8406C18.0401 21.2387 17.5755 22.63 16.7567 23.7821C15.4393 25.7 13.1528 26.9503 10.8044 26.9893C9.36388 27.071 7.92489 26.681 6.69741 25.9625C4.66318 24.7714 3.23175 22.591 3.02327 20.2509C2.99701 19.7553 2.99297 19.2588 3.01118 18.7628C3.19247 16.86 4.14046 15.0396 5.61193 13.8013C7.2798 12.359 9.61617 11.672 11.8037 12.0785C11.8241 13.5598 11.7645 15.0396 11.7645 16.521C10.7651 16.2 9.59729 16.29 8.72407 16.8922C8.08521 17.3101 7.60242 17.925 7.35005 18.6421C7.14156 19.1491 7.20124 19.7124 7.21333 20.2509C7.45278 21.892 9.04209 23.2713 10.7387 23.1221C11.8634 23.1101 12.9413 22.462 13.5275 21.5132C13.7171 21.181 13.9294 20.8412 13.9407 20.4504C14.0396 18.6616 14.0004 16.8802 14.0124 15.0914C14.0208 11.0599 14.0004 7.03972 14.0313 3.021L14.0306 3.02025Z" fill="#3E2B11"/>
</svg>
