<svg width="48" height="38" viewBox="0 0 48 38" fill="none" xmlns="http://www.w3.org/2000/svg">
<path d="M26.5 29H27.5V29L26.5 29ZM26.5 9H25.5H26.5ZM37.2322 7.23223L37.9393 6.52513L37.9393 6.52513L37.2322 7.23223ZM45.7678 15.7678L46.4749 15.0607V15.0607L45.7678 15.7678ZM4 2.5H24V0.5H4V2.5ZM25.5 4V29H27.5V4H25.5ZM2.5 29V4H0.5V29H2.5ZM6.5 30.5H4V32.5H6.5V30.5ZM24 30.5H16.5V32.5H24V30.5ZM0.5 29C0.5 30.933 2.067 32.5 4 32.5V30.5C3.17157 30.5 2.5 29.8284 2.5 29H0.5ZM25.5 29C25.5 29.8284 24.8284 30.5 24 30.5V32.5C25.933 32.5 27.5 30.933 27.5 29H25.5ZM24 2.5C24.8284 2.5 25.5 3.17157 25.5 4H27.5C27.5 2.067 25.933 0.5 24 0.5V2.5ZM4 0.5C2.067 0.5 0.5 2.067 0.5 4H2.5C2.5 3.17157 3.17157 2.5 4 2.5V0.5ZM27.5 29L27.5 9L25.5 9L25.5 29L27.5 29ZM29 7.5H35.4645V5.5H29V7.5ZM45.5 17.5355V29H47.5V17.5355H45.5ZM36.5251 7.93934L45.0607 16.4749L46.4749 15.0607L37.9393 6.52513L36.5251 7.93934ZM31.5 30.5H29V32.5H31.5V30.5ZM44 30.5H41.5V32.5H44V30.5ZM47.5 17.5355C47.5 16.6073 47.1313 15.717 46.4749 15.0607L45.0607 16.4749C45.342 16.7562 45.5 17.1377 45.5 17.5355H47.5ZM35.4645 7.5C35.8623 7.5 36.2438 7.65803 36.5251 7.93934L37.9393 6.52513C37.283 5.86875 36.3927 5.5 35.4645 5.5V7.5ZM25.5 29C25.5 30.933 27.067 32.5 29 32.5V30.5C28.1716 30.5 27.5 29.8284 27.5 29H25.5ZM45.5 29C45.5 29.8284 44.8284 30.5 44 30.5V32.5C45.933 32.5 47.5 30.933 47.5 29H45.5ZM27.5 9C27.5 8.17157 28.1716 7.5 29 7.5V5.5C27.067 5.5 25.5 7.067 25.5 9H27.5ZM15.5 31.5C15.5 33.7091 13.7091 35.5 11.5 35.5V37.5C14.8137 37.5 17.5 34.8137 17.5 31.5H15.5ZM11.5 35.5C9.29086 35.5 7.5 33.7091 7.5 31.5H5.5C5.5 34.8137 8.18629 37.5 11.5 37.5V35.5ZM7.5 31.5C7.5 29.2909 9.29086 27.5 11.5 27.5V25.5C8.18629 25.5 5.5 28.1863 5.5 31.5H7.5ZM11.5 27.5C13.7091 27.5 15.5 29.2909 15.5 31.5H17.5C17.5 28.1863 14.8137 25.5 11.5 25.5V27.5ZM40.5 31.5C40.5 33.7091 38.7091 35.5 36.5 35.5V37.5C39.8137 37.5 42.5 34.8137 42.5 31.5H40.5ZM36.5 35.5C34.2909 35.5 32.5 33.7091 32.5 31.5H30.5C30.5 34.8137 33.1863 37.5 36.5 37.5V35.5ZM32.5 31.5C32.5 29.2909 34.2909 27.5 36.5 27.5V25.5C33.1863 25.5 30.5 28.1863 30.5 31.5H32.5ZM36.5 27.5C38.7091 27.5 40.5 29.2909 40.5 31.5H42.5C42.5 28.1863 39.8137 25.5 36.5 25.5V27.5Z" fill="#0A0A0A"/>
</svg>
