<svg width="32" height="32" viewBox="0 0 32 32" fill="none" xmlns="http://www.w3.org/2000/svg">
<circle cx="16" cy="16" r="16" fill="#F6A738"/>
<g clip-path="url(#clip0_3668_22263)">
<path d="M26.6246 9.39554C25.8259 9.74719 24.9798 9.97931 24.1135 10.0844C25.0256 9.5362 25.7085 8.67647 26.0361 7.66398C25.1908 8.15732 24.2539 8.51643 23.2566 8.71643C22.5986 8.01281 21.7267 7.54613 20.7762 7.38887C19.8258 7.23161 18.8501 7.39256 18.0005 7.84673C17.1509 8.3009 16.4751 9.02287 16.0779 9.90054C15.6808 10.7782 15.5845 11.7624 15.8041 12.7004C12.1686 12.5289 8.94812 10.7822 6.79079 8.14398C6.3986 8.81048 6.19404 9.57067 6.19879 10.344C6.19879 11.864 6.97212 13.2 8.14367 13.9849C7.44933 13.9628 6.77032 13.775 6.16323 13.4373V13.4906C6.16284 14.5008 6.51191 15.4799 7.15124 16.262C7.79056 17.044 8.68075 17.5808 9.67079 17.7813C9.02927 17.9532 8.35737 17.979 7.70456 17.8569C7.98556 18.7262 8.53093 19.4861 9.26458 20.0306C9.99822 20.5751 10.8835 20.877 11.797 20.8942C10.2499 22.1084 8.33965 22.7674 6.37301 22.7653C6.02634 22.7653 5.68056 22.7449 5.33301 22.7058C7.33808 23.9896 9.66946 24.6711 12.0503 24.6693C20.0975 24.6693 24.493 18.0062 24.493 12.2382C24.493 12.0515 24.493 11.8649 24.4797 11.6782C25.3383 11.0603 26.079 10.2932 26.6663 9.41332L26.6246 9.39554Z" fill="white"/>
</g>
<defs>
<clipPath id="clip0_3668_22263">
<rect width="21.3333" height="21.3333" fill="white" transform="translate(5.33301 5.33331)"/>
</clipPath>
</defs>
</svg>
