<svg width="60" height="20" viewBox="0 0 60 20" fill="none" xmlns="http://www.w3.org/2000/svg">
<path d="M31.0305 6.19406C30.9963 8.89312 33.4359 10.3992 35.2737 11.2948C37.1618 12.2135 37.796 12.8027 37.7885 13.6245C37.7745 14.8819 36.2824 15.4369 34.8863 15.4584C32.4504 15.4962 31.0341 14.8008 29.9081 14.2748L29.0306 18.3809C30.1603 18.9014 32.2521 19.3554 34.4212 19.3753C39.513 19.3753 42.8442 16.8619 42.8623 12.9649C42.8822 8.01914 36.0213 7.74539 36.0682 5.53477C36.0844 4.86445 36.724 4.14914 38.1255 3.96727C38.8193 3.87539 40.7344 3.80508 42.9056 4.80492L43.7578 0.832266C42.5902 0.40711 41.0895 0 39.221 0C34.4285 0 31.0577 2.54766 31.0305 6.19406ZM51.9464 0.342188C51.0166 0.342188 50.2331 0.884531 49.8834 1.7168L42.6101 19.0835H47.6981L48.7106 16.2853H54.9281L55.5155 19.0835H60L56.0866 0.342188H51.9464ZM52.6582 5.40492L54.1266 12.4425H50.1052L52.6582 5.40492ZM24.8616 0.342422L20.8509 19.0833H25.6995L29.7082 0.341953H24.8616M17.689 0.341953L12.6424 13.0983L10.601 2.25211C10.3615 1.04133 9.41555 0.342188 8.36508 0.342188H0.115547L0 0.886406C1.69359 1.25391 3.61781 1.84664 4.78359 2.48086C5.49703 2.86828 5.70047 3.20695 5.93484 4.12758L9.80133 19.0835H14.925L22.7803 0.342188H17.689" fill="url(#paint0_linear_21_3587)"/>
<defs>
<linearGradient id="paint0_linear_21_3587" x1="27.5844" y1="19.764" x2="28.1452" y2="-0.134748" gradientUnits="userSpaceOnUse">
<stop stop-color="#222357"/>
<stop offset="1" stop-color="#254AA5"/>
</linearGradient>
</defs>
</svg>
