<svg width="30" height="30" viewBox="0 0 30 30" fill="none" xmlns="http://www.w3.org/2000/svg">
<rect width="30" height="30" fill="#F6A738"/>
<path d="M26.5006 9.51196C26.3647 9.02719 26.1 8.5883 25.7346 8.24196C25.3589 7.88496 24.8984 7.62959 24.3966 7.49996C22.5186 7.00496 14.9946 7.00496 14.9946 7.00496C11.8579 6.96927 8.72205 7.12623 5.60462 7.47496C5.10281 7.61417 4.64318 7.87525 4.26662 8.23496C3.89662 8.59096 3.62862 9.02996 3.48862 9.51096C3.15231 11.3227 2.98891 13.1623 3.00062 15.005C2.98862 16.846 3.15162 18.685 3.48862 20.499C3.62562 20.978 3.89262 21.415 4.26362 21.768C4.63462 22.121 5.09662 22.376 5.60462 22.511C7.50762 23.005 14.9946 23.005 14.9946 23.005C18.1353 23.0407 21.2752 22.8837 24.3966 22.535C24.8984 22.4053 25.3589 22.15 25.7346 21.793C26.0999 21.4467 26.3643 21.0077 26.4996 20.523C26.8447 18.7119 27.0125 16.8716 27.0006 15.028C27.0266 13.1766 26.859 11.3275 26.5006 9.51096V9.51196ZM12.6026 18.429V11.582L18.8626 15.006L12.6026 18.429Z" fill="#3E2B11"/>
</svg>
